<svg xmlns="http://www.w3.org/2000/svg" xmlns:xlink="http://www.w3.org/1999/xlink" width="1080" zoomAndPan="magnify" viewBox="0 0 810 1439.999935" height="1920" preserveAspectRatio="xMidYMid meet" version="1.0"><defs><clipPath id="e5286f7046"><path d="M 205.683594 626 L 529 626 L 529 836 L 205.683594 836 Z M 205.683594 626 " clip-rule="nonzero"/></clipPath></defs><g clip-path="url(#e5286f7046)"><path fill="#000000" d="M 497.398438 682.511719 L 306.964844 682.511719 C 306.304688 682.511719 305.648438 682.578125 305 682.707031 C 304.347656 682.835938 303.71875 683.027344 303.105469 683.28125 C 302.492188 683.535156 301.914062 683.84375 301.363281 684.210938 C 300.8125 684.578125 300.300781 684.996094 299.832031 685.464844 C 299.363281 685.933594 298.945312 686.441406 298.578125 686.992188 C 298.210938 687.542969 297.898438 688.125 297.644531 688.734375 C 297.390625 689.347656 297.199219 689.976562 297.070312 690.625 C 296.941406 691.277344 296.878906 691.933594 296.878906 692.59375 C 296.878906 693.253906 296.941406 693.910156 297.070312 694.558594 C 297.199219 695.210938 297.390625 695.839844 297.644531 696.453125 C 297.898438 697.0625 298.210938 697.644531 298.578125 698.195312 C 298.945312 698.746094 299.363281 699.253906 299.832031 699.722656 C 300.300781 700.191406 300.8125 700.609375 301.363281 700.976562 C 301.914062 701.34375 302.492188 701.652344 303.105469 701.90625 C 303.71875 702.160156 304.347656 702.351562 305 702.480469 C 305.648438 702.609375 306.304688 702.675781 306.964844 702.675781 L 497.398438 702.675781 C 497.867188 702.675781 498.328125 702.703125 498.789062 702.761719 C 499.253906 702.820312 499.707031 702.90625 500.160156 703.023438 C 500.609375 703.140625 501.050781 703.285156 501.484375 703.460938 C 501.914062 703.632812 502.335938 703.832031 502.742188 704.058594 C 503.148438 704.285156 503.539062 704.535156 503.914062 704.8125 C 504.289062 705.085938 504.644531 705.386719 504.980469 705.707031 C 505.316406 706.027344 505.628906 706.371094 505.921875 706.730469 C 506.214844 707.09375 506.484375 707.472656 506.730469 707.867188 C 506.972656 708.261719 507.191406 708.671875 507.382812 709.097656 C 507.578125 709.519531 507.742188 709.953125 507.878906 710.398438 C 508.015625 710.84375 508.125 711.292969 508.203125 711.753906 C 508.28125 712.210938 508.332031 712.671875 508.351562 713.136719 C 508.375 713.601562 508.363281 714.066406 508.324219 714.527344 C 508.289062 714.992188 508.21875 715.449219 508.121094 715.90625 C 508.023438 716.359375 507.898438 716.808594 507.746094 717.246094 C 507.589844 717.683594 507.410156 718.113281 507.199219 718.527344 C 495.671875 741.652344 479.207031 793.230469 470.984375 809.648438 C 470.53125 810.558594 469.957031 811.386719 469.273438 812.136719 C 468.585938 812.886719 467.808594 813.53125 466.945312 814.0625 C 466.078125 814.597656 465.15625 815.003906 464.175781 815.28125 C 463.199219 815.558594 462.199219 815.699219 461.183594 815.695312 L 320.988281 815.695312 C 319.886719 815.699219 318.8125 815.539062 317.761719 815.214844 C 316.710938 814.894531 315.730469 814.425781 314.820312 813.808594 C 313.910156 813.191406 313.113281 812.457031 312.425781 811.601562 C 311.734375 810.742188 311.1875 809.804688 310.78125 808.785156 C 310.78125 808.667969 279.246094 667.304688 279.246094 667.304688 C 278.929688 665.871094 278.550781 664.449219 278.113281 663.046875 C 277.675781 661.644531 277.179688 660.261719 276.625 658.898438 C 276.070312 657.539062 275.457031 656.203125 274.789062 654.894531 C 274.121094 653.582031 273.398438 652.304688 272.621094 651.054688 C 271.84375 649.808594 271.015625 648.59375 270.136719 647.414062 C 269.257812 646.234375 268.332031 645.097656 267.355469 643.996094 C 266.378906 642.894531 265.359375 641.839844 264.292969 640.824219 C 263.226562 639.8125 262.121094 638.84375 260.976562 637.921875 C 259.828125 637.003906 258.644531 636.132812 257.421875 635.3125 C 256.203125 634.492188 254.949219 633.722656 253.664062 633.011719 C 252.378906 632.296875 251.0625 631.636719 249.722656 631.03125 C 248.378906 630.429688 247.015625 629.882812 245.628906 629.394531 C 244.238281 628.90625 242.835938 628.480469 241.410156 628.109375 C 239.984375 627.742188 238.550781 627.433594 237.097656 627.183594 C 235.648438 626.9375 234.191406 626.75 232.722656 626.625 C 231.257812 626.5 229.789062 626.4375 228.320312 626.4375 L 215.785156 626.4375 C 215.113281 626.40625 214.445312 626.445312 213.78125 626.554688 C 213.117188 626.664062 212.472656 626.839844 211.84375 627.082031 C 211.21875 627.324219 210.621094 627.628906 210.058594 627.996094 C 209.496094 628.363281 208.976562 628.785156 208.5 629.261719 C 208.023438 629.734375 207.605469 630.253906 207.238281 630.820312 C 206.871094 631.382812 206.566406 631.976562 206.324219 632.605469 C 206.082031 633.230469 205.90625 633.878906 205.796875 634.539062 C 205.691406 635.203125 205.652344 635.871094 205.683594 636.542969 C 205.6875 637.203125 205.753906 637.859375 205.882812 638.507812 C 206.011719 639.15625 206.203125 639.785156 206.460938 640.398438 C 206.714844 641.007812 207.023438 641.589844 207.390625 642.136719 C 207.761719 642.6875 208.179688 643.195312 208.648438 643.664062 C 209.113281 644.132812 209.625 644.550781 210.175781 644.917969 C 210.722656 645.285156 211.304688 645.597656 211.917969 645.851562 C 212.527344 646.105469 213.15625 646.296875 213.808594 646.425781 C 214.457031 646.558594 215.113281 646.621094 215.773438 646.625 L 228.320312 646.625 C 229.21875 646.625 230.121094 646.660156 231.019531 646.738281 C 231.914062 646.8125 232.808594 646.925781 233.699219 647.078125 C 234.585938 647.230469 235.46875 647.417969 236.339844 647.644531 C 237.210938 647.867188 238.074219 648.128906 238.925781 648.429688 C 239.773438 648.726562 240.609375 649.058594 241.433594 649.429688 C 242.253906 649.796875 243.058594 650.199219 243.847656 650.636719 C 244.636719 651.074219 245.40625 651.542969 246.152344 652.046875 C 246.902344 652.546875 247.628906 653.078125 248.332031 653.644531 C 249.035156 654.207031 249.714844 654.796875 250.367188 655.417969 C 251.019531 656.039062 251.644531 656.683594 252.246094 657.359375 C 252.84375 658.03125 253.414062 658.726562 253.953125 659.449219 C 254.492188 660.171875 255 660.914062 255.476562 661.675781 C 255.953125 662.441406 256.398438 663.226562 256.808594 664.027344 C 257.21875 664.828125 257.59375 665.644531 257.9375 666.480469 C 258.277344 667.3125 258.585938 668.160156 258.855469 669.019531 C 259.125 669.878906 259.359375 670.746094 259.554688 671.625 L 291.183594 813.601562 C 291.261719 813.921875 291.355469 814.269531 291.457031 814.589844 C 291.972656 816.128906 292.601562 817.621094 293.347656 819.058594 C 294.09375 820.5 294.949219 821.875 295.910156 823.179688 C 296.871094 824.488281 297.929688 825.710938 299.082031 826.851562 C 300.234375 827.992188 301.472656 829.039062 302.789062 829.988281 C 304.105469 830.933594 305.488281 831.777344 306.9375 832.507812 C 308.382812 833.238281 309.878906 833.855469 311.425781 834.355469 C 312.96875 834.851562 314.542969 835.226562 316.148438 835.480469 C 317.75 835.734375 319.363281 835.859375 320.988281 835.859375 L 461.183594 835.859375 C 462.621094 835.859375 464.054688 835.761719 465.480469 835.5625 C 466.902344 835.363281 468.308594 835.066406 469.691406 834.675781 C 471.074219 834.28125 472.425781 833.796875 473.742188 833.214844 C 475.058594 832.636719 476.328125 831.96875 477.550781 831.210938 C 478.777344 830.457031 479.941406 829.617188 481.046875 828.703125 C 482.15625 827.785156 483.195312 826.792969 484.164062 825.734375 C 485.136719 824.671875 486.027344 823.550781 486.84375 822.363281 C 487.65625 821.179688 488.386719 819.945312 489.027344 818.65625 C 497.238281 802.242188 513.667969 750.683594 525.246094 727.539062 C 525.542969 726.949219 525.816406 726.347656 526.074219 725.742188 C 526.332031 725.132812 526.570312 724.519531 526.789062 723.894531 C 527.003906 723.273438 527.203125 722.644531 527.382812 722.011719 C 527.558594 721.375 527.71875 720.734375 527.855469 720.089844 C 527.992188 719.445312 528.109375 718.796875 528.203125 718.144531 C 528.300781 717.492188 528.375 716.835938 528.429688 716.179688 C 528.484375 715.519531 528.515625 714.863281 528.53125 714.203125 C 528.542969 713.542969 528.535156 712.882812 528.503906 712.226562 C 528.472656 711.566406 528.425781 710.910156 528.351562 710.253906 C 528.28125 709.597656 528.1875 708.945312 528.074219 708.296875 C 527.964844 707.644531 527.828125 707 527.675781 706.359375 C 527.519531 705.71875 527.347656 705.082031 527.152344 704.453125 C 526.957031 703.820312 526.742188 703.199219 526.507812 702.582031 C 526.273438 701.964844 526.023438 701.355469 525.75 700.753906 C 525.476562 700.15625 525.183594 699.5625 524.875 698.980469 C 524.5625 698.398438 524.234375 697.828125 523.886719 697.265625 C 523.539062 696.707031 523.175781 696.15625 522.792969 695.617188 C 522.410156 695.082031 522.011719 694.554688 521.597656 694.042969 C 521.183594 693.53125 520.75 693.03125 520.304688 692.546875 C 519.855469 692.0625 519.394531 691.589844 518.917969 691.136719 C 518.441406 690.679688 517.949219 690.238281 517.445312 689.8125 C 516.9375 689.390625 516.421875 688.980469 515.890625 688.589844 C 515.359375 688.199219 514.816406 687.824219 514.261719 687.46875 C 513.707031 687.109375 513.140625 686.769531 512.5625 686.449219 C 511.988281 686.128906 511.398438 685.824219 510.804688 685.542969 C 510.207031 685.257812 509.605469 684.992188 508.992188 684.746094 C 508.378906 684.503906 507.757812 684.277344 507.132812 684.070312 C 506.503906 683.863281 505.871094 683.679688 505.234375 683.511719 C 504.59375 683.347656 503.949219 683.199219 503.304688 683.074219 C 502.65625 682.953125 502.003906 682.847656 501.347656 682.761719 C 500.695312 682.679688 500.039062 682.617188 499.378906 682.574219 C 498.71875 682.535156 498.058594 682.511719 497.398438 682.511719 Z M 497.398438 682.511719 " fill-opacity="1" fill-rule="evenodd"/></g><path fill="#000000" d="M 331.953125 847.679688 C 330.601562 847.679688 329.253906 847.746094 327.914062 847.878906 C 326.570312 848.011719 325.234375 848.207031 323.910156 848.472656 C 322.585938 848.734375 321.277344 849.0625 319.984375 849.453125 C 318.695312 849.84375 317.425781 850.300781 316.175781 850.816406 C 314.929688 851.332031 313.710938 851.90625 312.519531 852.542969 C 311.328125 853.179688 310.171875 853.871094 309.050781 854.621094 C 307.929688 855.371094 306.84375 856.175781 305.800781 857.03125 C 304.757812 857.886719 303.757812 858.792969 302.804688 859.746094 C 301.847656 860.699219 300.945312 861.699219 300.085938 862.742188 C 299.230469 863.78125 298.425781 864.867188 297.675781 865.988281 C 296.925781 867.109375 296.234375 868.265625 295.597656 869.453125 C 294.960938 870.644531 294.386719 871.863281 293.867188 873.109375 C 293.351562 874.355469 292.898438 875.625 292.507812 876.914062 C 292.113281 878.207031 291.785156 879.511719 291.523438 880.835938 C 291.261719 882.160156 291.0625 883.492188 290.929688 884.835938 C 290.796875 886.175781 290.730469 887.523438 290.730469 888.871094 C 290.730469 890.222656 290.796875 891.566406 290.929688 892.910156 C 291.0625 894.25 291.261719 895.585938 291.523438 896.90625 C 291.789062 898.230469 292.117188 899.539062 292.507812 900.828125 C 292.898438 902.121094 293.355469 903.386719 293.871094 904.632812 C 294.386719 905.878906 294.964844 907.097656 295.601562 908.289062 C 296.238281 909.476562 296.933594 910.632812 297.683594 911.753906 C 298.433594 912.875 299.234375 913.960938 300.09375 915 C 300.949219 916.042969 301.855469 917.042969 302.808594 917.996094 C 303.765625 918.949219 304.761719 919.855469 305.808594 920.710938 C 306.851562 921.566406 307.933594 922.367188 309.058594 923.117188 C 310.179688 923.867188 311.335938 924.558594 312.527344 925.195312 C 313.71875 925.832031 314.9375 926.40625 316.183594 926.921875 C 317.433594 927.441406 318.703125 927.894531 319.992188 928.285156 C 321.285156 928.675781 322.59375 929.003906 323.917969 929.265625 C 325.242188 929.527344 326.574219 929.726562 327.917969 929.859375 C 329.261719 929.992188 330.609375 930.054688 331.960938 930.054688 C 333.308594 930.054688 334.65625 929.988281 336 929.855469 C 337.34375 929.726562 338.679688 929.527344 340.003906 929.261719 C 341.328125 929 342.632812 928.671875 343.925781 928.28125 C 345.21875 927.886719 346.488281 927.433594 347.734375 926.917969 C 348.980469 926.402344 350.203125 925.824219 351.390625 925.1875 C 352.582031 924.550781 353.738281 923.859375 354.859375 923.109375 C 355.984375 922.359375 357.066406 921.558594 358.109375 920.699219 C 359.152344 919.84375 360.152344 918.941406 361.105469 917.984375 C 362.0625 917.03125 362.964844 916.03125 363.824219 914.988281 C 364.679688 913.945312 365.480469 912.863281 366.230469 911.742188 C 366.980469 910.621094 367.675781 909.464844 368.3125 908.273438 C 368.945312 907.085938 369.523438 905.867188 370.039062 904.621094 C 370.554688 903.375 371.011719 902.105469 371.402344 900.8125 C 371.792969 899.523438 372.121094 898.214844 372.382812 896.894531 C 372.644531 895.570312 372.84375 894.238281 372.976562 892.894531 C 373.109375 891.550781 373.171875 890.207031 373.171875 888.855469 C 373.171875 887.507812 373.105469 886.164062 372.972656 884.820312 C 372.839844 883.480469 372.640625 882.148438 372.375 880.824219 C 372.113281 879.503906 371.78125 878.195312 371.390625 876.90625 C 370.996094 875.613281 370.542969 874.347656 370.027344 873.101562 C 369.507812 871.855469 368.933594 870.640625 368.296875 869.449219 C 367.660156 868.261719 366.964844 867.105469 366.214844 865.984375 C 365.464844 864.863281 364.660156 863.78125 363.804688 862.738281 C 362.949219 861.699219 362.042969 860.699219 361.089844 859.746094 C 360.136719 858.792969 359.136719 857.886719 358.09375 857.03125 C 357.050781 856.175781 355.964844 855.375 354.84375 854.625 C 353.722656 853.875 352.566406 853.183594 351.375 852.546875 C 350.1875 851.914062 348.96875 851.335938 347.722656 850.820312 C 346.472656 850.304688 345.207031 849.851562 343.914062 849.457031 C 342.621094 849.066406 341.316406 848.738281 339.992188 848.476562 C 338.667969 848.210938 337.335938 848.011719 335.992188 847.878906 C 334.648438 847.746094 333.300781 847.679688 331.953125 847.679688 Z M 331.953125 909.894531 C 331.261719 909.894531 330.574219 909.859375 329.890625 909.792969 C 329.203125 909.726562 328.523438 909.625 327.847656 909.488281 C 327.171875 909.355469 326.503906 909.1875 325.84375 908.988281 C 325.1875 908.789062 324.539062 908.558594 323.902344 908.292969 C 323.265625 908.03125 322.640625 907.738281 322.035156 907.410156 C 321.425781 907.085938 320.835938 906.734375 320.261719 906.351562 C 319.691406 905.96875 319.136719 905.558594 318.605469 905.121094 C 318.070312 904.6875 317.5625 904.222656 317.074219 903.738281 C 316.585938 903.25 316.125 902.742188 315.6875 902.207031 C 315.25 901.675781 314.839844 901.125 314.457031 900.550781 C 314.074219 899.980469 313.722656 899.390625 313.394531 898.78125 C 313.070312 898.175781 312.777344 897.554688 312.511719 896.917969 C 312.25 896.28125 312.015625 895.632812 311.816406 894.972656 C 311.617188 894.316406 311.449219 893.648438 311.316406 892.972656 C 311.179688 892.296875 311.078125 891.617188 311.011719 890.933594 C 310.945312 890.246094 310.910156 889.558594 310.910156 888.871094 C 310.910156 888.183594 310.945312 887.496094 311.011719 886.8125 C 311.078125 886.125 311.179688 885.445312 311.3125 884.769531 C 311.449219 884.09375 311.613281 883.429688 311.816406 882.769531 C 312.015625 882.109375 312.246094 881.460938 312.511719 880.824219 C 312.773438 880.191406 313.066406 879.566406 313.390625 878.960938 C 313.71875 878.351562 314.070312 877.761719 314.453125 877.191406 C 314.835938 876.617188 315.246094 876.066406 315.683594 875.535156 C 316.121094 875 316.582031 874.492188 317.070312 874.003906 C 317.554688 873.515625 318.066406 873.054688 318.597656 872.617188 C 319.132812 872.179688 319.683594 871.773438 320.257812 871.390625 C 320.828125 871.007812 321.417969 870.652344 322.027344 870.328125 C 322.636719 870.003906 323.257812 869.707031 323.894531 869.445312 C 324.53125 869.179688 325.179688 868.949219 325.835938 868.75 C 326.496094 868.550781 327.164062 868.382812 327.839844 868.246094 C 328.515625 868.113281 329.195312 868.011719 329.882812 867.945312 C 330.570312 867.875 331.257812 867.84375 331.945312 867.84375 C 332.632812 867.839844 333.320312 867.875 334.007812 867.941406 C 334.691406 868.007812 335.375 868.109375 336.050781 868.246094 C 336.726562 868.378906 337.394531 868.546875 338.054688 868.746094 C 338.710938 868.945312 339.359375 869.175781 339.996094 869.4375 C 340.632812 869.703125 341.257812 869.996094 341.863281 870.320312 C 342.472656 870.644531 343.0625 871 343.636719 871.378906 C 344.207031 871.761719 344.761719 872.171875 345.292969 872.609375 C 345.828125 873.046875 346.335938 873.507812 346.824219 873.992188 C 347.3125 874.480469 347.773438 874.988281 348.210938 875.523438 C 348.648438 876.054688 349.058594 876.605469 349.445312 877.179688 C 349.828125 877.75 350.179688 878.339844 350.503906 878.949219 C 350.832031 879.554688 351.125 880.175781 351.390625 880.8125 C 351.652344 881.449219 351.886719 882.09375 352.085938 882.753906 C 352.285156 883.414062 352.453125 884.078125 352.589844 884.753906 C 352.722656 885.429688 352.824219 886.109375 352.894531 886.796875 C 352.960938 887.480469 352.996094 888.167969 352.996094 888.855469 C 352.996094 889.546875 352.960938 890.230469 352.894531 890.917969 C 352.824219 891.601562 352.722656 892.28125 352.589844 892.957031 C 352.453125 893.632812 352.285156 894.300781 352.085938 894.960938 C 351.886719 895.617188 351.65625 896.265625 351.390625 896.902344 C 351.125 897.539062 350.832031 898.160156 350.507812 898.769531 C 350.183594 899.375 349.828125 899.964844 349.445312 900.539062 C 349.0625 901.109375 348.652344 901.664062 348.214844 902.195312 C 347.777344 902.726562 347.316406 903.238281 346.828125 903.726562 C 346.34375 904.210938 345.832031 904.675781 345.300781 905.109375 C 344.765625 905.546875 344.214844 905.957031 343.640625 906.339844 C 343.070312 906.722656 342.476562 907.078125 341.871094 907.402344 C 341.261719 907.726562 340.640625 908.023438 340.003906 908.285156 C 339.367188 908.550781 338.71875 908.78125 338.058594 908.984375 C 337.402344 909.183594 336.734375 909.351562 336.058594 909.484375 C 335.382812 909.621094 334.699219 909.722656 334.015625 909.789062 C 333.328125 909.859375 332.640625 909.894531 331.953125 909.894531 Z M 331.953125 909.894531 " fill-opacity="1" fill-rule="evenodd"/><path fill="#000000" d="M 446.839844 847.679688 C 445.488281 847.679688 444.144531 847.746094 442.800781 847.878906 C 441.457031 848.011719 440.121094 848.207031 438.796875 848.472656 C 437.472656 848.734375 436.164062 849.0625 434.875 849.453125 C 433.582031 849.84375 432.3125 850.300781 431.066406 850.816406 C 429.816406 851.332031 428.597656 851.90625 427.40625 852.542969 C 426.21875 853.179688 425.058594 853.871094 423.9375 854.621094 C 422.816406 855.371094 421.730469 856.175781 420.6875 857.03125 C 419.644531 857.886719 418.644531 858.792969 417.691406 859.746094 C 416.738281 860.699219 415.832031 861.699219 414.976562 862.742188 C 414.117188 863.78125 413.316406 864.867188 412.566406 865.988281 C 411.816406 867.109375 411.121094 868.265625 410.484375 869.453125 C 409.847656 870.644531 409.273438 871.863281 408.757812 873.109375 C 408.238281 874.355469 407.785156 875.625 407.394531 876.914062 C 407 878.207031 406.675781 879.511719 406.410156 880.835938 C 406.148438 882.160156 405.949219 883.492188 405.816406 884.835938 C 405.683594 886.175781 405.621094 887.523438 405.621094 888.871094 C 405.621094 890.222656 405.6875 891.566406 405.816406 892.910156 C 405.949219 894.25 406.148438 895.585938 406.414062 896.90625 C 406.675781 898.230469 407.003906 899.539062 407.394531 900.828125 C 407.789062 902.121094 408.242188 903.386719 408.757812 904.632812 C 409.277344 905.878906 409.851562 907.097656 410.488281 908.289062 C 411.125 909.476562 411.820312 910.632812 412.570312 911.753906 C 413.320312 912.875 414.121094 913.960938 414.980469 915 C 415.835938 916.042969 416.742188 917.042969 417.695312 917.996094 C 418.652344 918.949219 419.652344 919.855469 420.695312 920.710938 C 421.738281 921.566406 422.820312 922.367188 423.945312 923.117188 C 425.066406 923.867188 426.222656 924.558594 427.414062 925.195312 C 428.605469 925.832031 429.824219 926.40625 431.070312 926.921875 C 432.320312 927.441406 433.589844 927.894531 434.882812 928.285156 C 436.171875 928.675781 437.480469 929.003906 438.804688 929.265625 C 440.128906 929.527344 441.464844 929.726562 442.808594 929.859375 C 444.152344 929.992188 445.496094 930.054688 446.847656 930.054688 C 448.199219 930.054688 449.542969 929.988281 450.886719 929.855469 C 452.230469 929.726562 453.566406 929.527344 454.890625 929.261719 C 456.214844 929 457.523438 928.671875 458.8125 928.28125 C 460.105469 927.886719 461.375 927.433594 462.621094 926.917969 C 463.871094 926.402344 465.089844 925.824219 466.277344 925.1875 C 467.46875 924.550781 468.625 923.859375 469.75 923.109375 C 470.871094 922.359375 471.953125 921.558594 472.996094 920.699219 C 474.039062 919.84375 475.039062 918.941406 475.996094 917.984375 C 476.949219 917.03125 477.855469 916.03125 478.710938 914.988281 C 479.566406 913.945312 480.371094 912.863281 481.121094 911.742188 C 481.871094 910.621094 482.5625 909.464844 483.199219 908.273438 C 483.835938 907.085938 484.410156 905.867188 484.925781 904.621094 C 485.441406 903.375 485.898438 902.105469 486.289062 900.8125 C 486.679688 899.523438 487.007812 898.214844 487.269531 896.894531 C 487.535156 895.570312 487.730469 894.238281 487.863281 892.894531 C 487.996094 891.550781 488.0625 890.207031 488.0625 888.855469 C 488.058594 887.507812 487.992188 886.164062 487.859375 884.820312 C 487.726562 883.476562 487.527344 882.144531 487.265625 880.824219 C 487 879.5 486.671875 878.195312 486.28125 876.902344 C 485.886719 875.613281 485.433594 874.34375 484.917969 873.101562 C 484.398438 871.855469 483.824219 870.636719 483.1875 869.449219 C 482.550781 868.257812 481.855469 867.101562 481.105469 865.980469 C 480.355469 864.859375 479.554688 863.777344 478.695312 862.738281 C 477.839844 861.695312 476.933594 860.695312 475.980469 859.742188 C 475.027344 858.789062 474.027344 857.886719 472.984375 857.03125 C 471.941406 856.175781 470.855469 855.371094 469.734375 854.621094 C 468.613281 853.875 467.457031 853.179688 466.265625 852.546875 C 465.074219 851.910156 463.855469 851.332031 462.609375 850.816406 C 461.363281 850.300781 460.09375 849.847656 458.800781 849.457031 C 457.511719 849.0625 456.203125 848.734375 454.878906 848.472656 C 453.554688 848.210938 452.222656 848.011719 450.878906 847.878906 C 449.535156 847.746094 448.191406 847.679688 446.839844 847.679688 Z M 446.839844 909.894531 C 446.152344 909.894531 445.464844 909.859375 444.777344 909.792969 C 444.09375 909.726562 443.410156 909.625 442.734375 909.492188 C 442.058594 909.355469 441.390625 909.1875 440.730469 908.988281 C 440.074219 908.789062 439.425781 908.558594 438.789062 908.292969 C 438.152344 908.03125 437.53125 907.738281 436.921875 907.410156 C 436.3125 907.085938 435.722656 906.734375 435.152344 906.351562 C 434.578125 905.96875 434.023438 905.558594 433.492188 905.121094 C 432.960938 904.6875 432.449219 904.222656 431.960938 903.738281 C 431.476562 903.25 431.011719 902.742188 430.574219 902.207031 C 430.136719 901.675781 429.726562 901.125 429.34375 900.550781 C 428.960938 899.980469 428.609375 899.390625 428.285156 898.78125 C 427.957031 898.175781 427.664062 897.554688 427.398438 896.917969 C 427.136719 896.28125 426.90625 895.632812 426.703125 894.976562 C 426.503906 894.316406 426.335938 893.648438 426.203125 892.972656 C 426.066406 892.296875 425.964844 891.617188 425.898438 890.933594 C 425.832031 890.246094 425.796875 889.558594 425.796875 888.871094 C 425.796875 888.183594 425.832031 887.496094 425.898438 886.8125 C 425.964844 886.125 426.066406 885.445312 426.199219 884.769531 C 426.335938 884.09375 426.503906 883.429688 426.703125 882.769531 C 426.902344 882.109375 427.132812 881.460938 427.398438 880.824219 C 427.660156 880.191406 427.953125 879.566406 428.28125 878.960938 C 428.605469 878.355469 428.957031 877.761719 429.339844 877.191406 C 429.722656 876.617188 430.132812 876.066406 430.570312 875.535156 C 431.007812 875 431.46875 874.492188 431.957031 874.003906 C 432.445312 873.515625 432.953125 873.054688 433.484375 872.617188 C 434.019531 872.179688 434.570312 871.773438 435.144531 871.390625 C 435.71875 871.007812 436.308594 870.652344 436.914062 870.328125 C 437.523438 870.003906 438.144531 869.707031 438.78125 869.445312 C 439.417969 869.179688 440.066406 868.949219 440.726562 868.75 C 441.382812 868.550781 442.050781 868.382812 442.726562 868.246094 C 443.402344 868.113281 444.085938 868.011719 444.769531 867.945312 C 445.457031 867.875 446.144531 867.84375 446.832031 867.84375 C 447.519531 867.839844 448.207031 867.875 448.894531 867.941406 C 449.582031 868.007812 450.261719 868.109375 450.9375 868.246094 C 451.613281 868.378906 452.28125 868.546875 452.941406 868.746094 C 453.601562 868.945312 454.246094 869.175781 454.882812 869.4375 C 455.519531 869.703125 456.144531 869.996094 456.75 870.320312 C 457.359375 870.644531 457.949219 871 458.523438 871.378906 C 459.097656 871.761719 459.648438 872.171875 460.183594 872.609375 C 460.714844 873.046875 461.226562 873.507812 461.710938 873.992188 C 462.199219 874.480469 462.664062 874.988281 463.101562 875.523438 C 463.539062 876.054688 463.949219 876.605469 464.332031 877.179688 C 464.714844 877.75 465.066406 878.339844 465.394531 878.949219 C 465.71875 879.554688 466.011719 880.175781 466.277344 880.8125 C 466.539062 881.449219 466.773438 882.09375 466.972656 882.753906 C 467.175781 883.414062 467.339844 884.078125 467.476562 884.753906 C 467.609375 885.429688 467.710938 886.109375 467.78125 886.796875 C 467.847656 887.480469 467.882812 888.167969 467.882812 888.855469 C 467.882812 889.546875 467.847656 890.230469 467.78125 890.917969 C 467.710938 891.601562 467.609375 892.28125 467.476562 892.957031 C 467.34375 893.632812 467.175781 894.300781 466.972656 894.960938 C 466.773438 895.617188 466.542969 896.265625 466.277344 896.902344 C 466.015625 897.539062 465.71875 898.160156 465.394531 898.769531 C 465.070312 899.375 464.714844 899.964844 464.332031 900.539062 C 463.949219 901.109375 463.539062 901.664062 463.101562 902.195312 C 462.667969 902.726562 462.203125 903.238281 461.71875 903.726562 C 461.230469 904.210938 460.71875 904.675781 460.1875 905.109375 C 459.65625 905.546875 459.101562 905.957031 458.527344 906.339844 C 457.957031 906.722656 457.367188 907.078125 456.757812 907.402344 C 456.152344 907.726562 455.527344 908.023438 454.890625 908.285156 C 454.253906 908.550781 453.605469 908.78125 452.949219 908.984375 C 452.289062 909.183594 451.621094 909.351562 450.945312 909.484375 C 450.269531 909.621094 449.589844 909.722656 448.902344 909.789062 C 448.214844 909.859375 447.527344 909.894531 446.839844 909.894531 Z M 446.839844 909.894531 " fill-opacity="1" fill-rule="evenodd"/></svg>