<svg xmlns="http://www.w3.org/2000/svg" xmlns:xlink="http://www.w3.org/1999/xlink" width="500" zoomAndPan="magnify" viewBox="0 0 375 374.999991" height="500" preserveAspectRatio="xMidYMid meet" version="1.0"><defs><g/><clipPath id="c7b9d40ec8"><path d="M 95 141 L 291 141 L 291 226 L 95 226 Z M 95 141 " clip-rule="nonzero"/></clipPath><clipPath id="89cb1f9bcb"><path d="M 89.570312 169.730469 L 296.636719 134.75 L 308.257812 203.523438 L 101.191406 238.507812 Z M 89.570312 169.730469 " clip-rule="nonzero"/></clipPath><clipPath id="fd220aa337"><path d="M 89.570312 169.730469 L 296.636719 134.75 L 308.257812 203.523438 L 101.191406 238.507812 Z M 89.570312 169.730469 " clip-rule="nonzero"/></clipPath></defs><g clip-path="url(#c7b9d40ec8)"><g clip-path="url(#89cb1f9bcb)"><g clip-path="url(#fd220aa337)"><path fill="#dbf6ff" d="M 290.546875 193.167969 C 264.269531 210.945312 233.945312 212.585938 204.609375 216.695312 C 175.9375 220.714844 146.925781 222.300781 118.070312 225.050781 C 107.792969 226.03125 99 225.554688 98.285156 211.785156 C 97.769531 201.945312 95.042969 192.054688 95.824219 182.398438 C 96.136719 178.5 102.6875 172.871094 107.21875 171.914062 C 155.148438 161.792969 203.261719 152.554688 251.277344 142.835938 C 263.886719 140.285156 265.574219 141.554688 268.679688 160.269531 C 300.0625 155.035156 284.078125 181.164062 290.546875 193.167969 Z M 290.546875 193.167969 " fill-opacity="1" fill-rule="nonzero"/></g></g></g><g fill="#ff914d" fill-opacity="1"><g transform="translate(94.405407, 232.10997)"><g><path d="M 9.238281 -1.039062 C 9.121094 -1.039062 9.0625 -0.921875 9.0625 -0.808594 C 9.0625 -0.636719 9.121094 -0.578125 9.238281 -0.636719 C 9.410156 -0.75 9.410156 -1.039062 9.238281 -1.039062 Z M 24.539062 -31.175781 C 24.363281 -31.292969 24.25 -31.464844 24.25 -31.640625 C 24.304688 -31.925781 24.019531 -32.273438 23.671875 -32.679688 C 23.324219 -33.023438 22.921875 -33.542969 22.863281 -33.773438 C 22.632812 -34.238281 22.402344 -34.351562 22.113281 -34.238281 C 22.054688 -34.179688 21.996094 -34.007812 21.996094 -33.773438 C 21.996094 -33.429688 21.765625 -33.199219 21.246094 -32.792969 C 20.84375 -32.445312 20.324219 -31.984375 20.035156 -31.695312 C 19.746094 -31.351562 19.339844 -31.121094 19.167969 -31.0625 C 18.9375 -31.0625 18.53125 -30.832031 18.246094 -30.65625 C 17.898438 -30.367188 17.550781 -30.136719 17.4375 -30.023438 C 17.320312 -29.964844 16.398438 -29.445312 15.414062 -28.867188 C 14.433594 -28.289062 13.277344 -27.597656 12.816406 -27.367188 C 11.199219 -26.441406 9.871094 -25.691406 9.757812 -25.691406 C 9.757812 -25.691406 9.296875 -25.519531 8.777344 -25.230469 C 7.851562 -24.710938 6.175781 -24.019531 5.542969 -23.84375 L 5.136719 -23.730469 L 5.3125 -24.710938 C 5.425781 -25.289062 5.65625 -26.210938 5.832031 -26.730469 C 6.003906 -27.308594 6.121094 -27.886719 6.121094 -27.945312 C 6.410156 -29.214844 7.851562 -34.8125 8.890625 -38.335938 C 9.007812 -38.738281 9.351562 -39.78125 9.585938 -40.761719 C 9.871094 -41.683594 10.160156 -42.550781 10.277344 -42.667969 C 10.335938 -42.78125 10.507812 -43.300781 10.625 -43.820312 C 10.796875 -44.339844 10.96875 -44.746094 10.96875 -44.746094 C 11.027344 -44.746094 11.027344 -45.207031 12.125 -48.265625 C 12.585938 -49.535156 13.046875 -50.75 13.164062 -51.09375 C 13.222656 -51.382812 13.566406 -51.960938 13.914062 -52.480469 C 14.261719 -53.117188 14.433594 -53.519531 14.433594 -53.925781 C 14.492188 -54.269531 14.664062 -54.847656 14.839844 -55.308594 C 15.242188 -56.175781 15.53125 -56.753906 15.644531 -57.273438 C 15.820312 -57.675781 16.742188 -59.988281 16.859375 -60.101562 C 17.03125 -60.273438 17.957031 -62.757812 17.957031 -62.988281 C 17.957031 -63.160156 18.417969 -64.433594 19.050781 -65.816406 C 19.167969 -66.050781 19.457031 -66.742188 19.746094 -67.320312 C 19.976562 -67.953125 20.324219 -68.761719 20.496094 -69.109375 C 20.667969 -69.457031 20.785156 -69.859375 20.785156 -70.03125 C 20.785156 -70.207031 21.015625 -70.667969 21.246094 -71.128906 C 21.535156 -71.535156 21.765625 -72.109375 21.824219 -72.34375 C 21.9375 -72.574219 22.171875 -72.917969 22.285156 -73.09375 C 22.457031 -73.265625 22.632812 -73.667969 22.746094 -74.015625 C 22.804688 -74.363281 23.035156 -74.824219 23.210938 -75.054688 C 23.382812 -75.402344 23.441406 -75.574219 23.324219 -75.980469 C 23.210938 -76.613281 21.824219 -78.402344 21.476562 -78.402344 C 21.304688 -78.402344 21.074219 -78.578125 21.015625 -78.75 C 20.898438 -78.980469 20.726562 -79.15625 20.4375 -79.15625 C 20.265625 -79.15625 19.976562 -79.210938 19.976562 -79.328125 C 19.859375 -79.386719 19.746094 -79.445312 19.628906 -79.445312 C 19.398438 -79.328125 19.226562 -79.445312 19.050781 -79.617188 C 18.878906 -79.847656 18.820312 -79.847656 18.53125 -79.5 C 18.359375 -79.386719 18.011719 -78.691406 17.726562 -78 C 17.4375 -77.363281 17.089844 -76.671875 16.972656 -76.441406 C 16.859375 -76.210938 16.222656 -74.941406 15.644531 -73.613281 C 15.300781 -72.804688 15.011719 -72.226562 14.894531 -71.824219 C 14.722656 -71.878906 14.605469 -71.824219 14.550781 -71.589844 C 14.492188 -71.015625 14.316406 -70.550781 14.085938 -70.03125 C 13.511719 -69.167969 13.046875 -68.183594 12.585938 -67.203125 C 12.414062 -66.914062 12.296875 -66.625 12.125 -66.335938 C 11.375 -64.722656 10.738281 -63.046875 10.105469 -61.316406 C 8.601562 -56.984375 7.042969 -52.65625 5.65625 -48.265625 C 2.945312 -39.953125 -2.539062 -18.128906 -3.003906 -10.796875 C -3.117188 -8.832031 -3.523438 -6.929688 -3.636719 -4.964844 C -3.925781 -3.058594 -4.15625 -1.15625 -4.214844 0.808594 C -4.386719 3.925781 -4.15625 8.71875 -0.460938 9.640625 C -0.289062 9.757812 -0.171875 9.871094 0 9.988281 C 0.347656 10.21875 1.210938 10.679688 1.90625 11.085938 C 3.867188 11.949219 4.503906 11.777344 5.714844 10.046875 C 6.0625 9.527344 6.292969 9.0625 6.292969 8.71875 C 6.292969 8.488281 6.410156 7.96875 6.582031 7.5625 C 6.8125 7.160156 6.8125 6.871094 6.753906 6.753906 C 6.640625 6.640625 6.640625 6.464844 6.871094 6.121094 C 6.984375 5.945312 7.101562 5.601562 7.101562 5.484375 C 7.101562 5.371094 7.21875 4.90625 7.390625 4.5625 C 7.5625 4.15625 7.792969 3.464844 7.910156 3.003906 C 7.96875 2.539062 8.082031 2.019531 8.140625 1.964844 C 8.257812 1.847656 8.429688 1.210938 8.601562 0.402344 C 8.777344 -0.347656 9.007812 -1.210938 9.0625 -1.558594 C 9.238281 -2.25 9.0625 -2.425781 8.832031 -1.789062 C 8.660156 -1.328125 8.660156 -1.328125 8.777344 -1.964844 C 8.777344 -2.308594 8.890625 -3.003906 9.007812 -3.578125 C 9.179688 -4.15625 9.351562 -5.195312 9.46875 -5.890625 C 9.585938 -6.640625 9.757812 -7.503906 9.816406 -7.910156 C 9.988281 -8.71875 10.046875 -10.910156 9.988281 -11.835938 C 9.929688 -12.183594 9.871094 -12.703125 9.871094 -13.105469 C 9.816406 -13.914062 9.527344 -15.53125 9.410156 -15.644531 C 9.351562 -15.703125 9.238281 -16.050781 9.121094 -16.398438 C 8.949219 -16.742188 8.542969 -17.4375 8.082031 -17.957031 C 6.871094 -19.457031 6.871094 -19.457031 7.5625 -19.804688 C 7.910156 -20.035156 8.601562 -20.378906 9.121094 -20.613281 C 10.855469 -21.417969 14.953125 -23.730469 16.570312 -24.824219 C 18.011719 -25.75 17.957031 -25.75 19.167969 -26.386719 C 20.089844 -26.960938 22.054688 -28.230469 23.210938 -29.097656 C 23.382812 -29.273438 23.84375 -29.558594 24.191406 -29.734375 C 24.539062 -29.964844 24.824219 -30.195312 24.882812 -30.195312 C 25 -30.484375 24.769531 -31.0625 24.539062 -31.175781 Z M 14.605469 -69.742188 C 14.722656 -69.917969 14.894531 -70.089844 15.011719 -70.207031 C 15.011719 -70.148438 15.011719 -70.089844 15.011719 -69.976562 C 14.78125 -69.742188 14.605469 -69.457031 14.375 -69.222656 C 14.492188 -69.398438 14.550781 -69.570312 14.605469 -69.742188 Z M 14.550781 -68.359375 C 14.316406 -67.78125 14.03125 -67.320312 13.796875 -67.261719 C 14.03125 -67.664062 14.261719 -68.011719 14.550781 -68.359375 Z M 13.625 -66.335938 C 13.683594 -66.394531 13.742188 -66.394531 13.742188 -66.28125 C 13.742188 -66.164062 13.683594 -66.050781 13.625 -65.992188 C 13.566406 -65.992188 13.453125 -65.992188 13.453125 -66.105469 C 13.453125 -66.164062 13.566406 -66.335938 13.625 -66.335938 Z M 10.679688 -59.582031 C 10.738281 -59.582031 10.796875 -59.582031 10.855469 -59.582031 C 10.738281 -59.292969 10.679688 -59.0625 10.566406 -58.832031 C 10.507812 -58.832031 10.449219 -58.773438 10.390625 -58.714844 C 10.390625 -58.660156 10.335938 -58.660156 10.335938 -58.660156 C 10.449219 -58.949219 10.566406 -59.292969 10.679688 -59.582031 Z M 10.046875 -57.910156 C 10.105469 -57.964844 10.160156 -58.082031 10.160156 -58.140625 C 10.160156 -58.082031 10.21875 -58.082031 10.21875 -58.082031 C 10.160156 -57.910156 10.105469 -57.792969 10.046875 -57.621094 C 10.046875 -57.675781 10.046875 -57.675781 9.988281 -57.675781 C 10.046875 -57.734375 10.046875 -57.792969 10.046875 -57.910156 Z M 5.082031 -44.226562 C 4.964844 -43.9375 4.90625 -43.648438 4.851562 -43.359375 C 4.851562 -43.417969 4.851562 -43.417969 4.851562 -43.417969 C 4.90625 -43.648438 4.964844 -43.878906 5.023438 -44.109375 C 5.023438 -44.109375 5.023438 -44.167969 5.082031 -44.226562 Z M 3.753906 -39.203125 C 3.753906 -39.203125 3.753906 -39.203125 3.753906 -39.261719 C 4.042969 -40.355469 4.332031 -41.453125 4.617188 -42.609375 C 4.503906 -42.203125 4.445312 -41.742188 4.332031 -41.339844 C 4.332031 -41.339844 4.332031 -41.28125 4.273438 -41.28125 C 4.042969 -40.242188 3.808594 -39.203125 3.578125 -38.164062 C 3.523438 -38.164062 3.523438 -38.105469 3.523438 -38.105469 C 3.464844 -38.046875 3.464844 -37.988281 3.464844 -37.933594 C 3.523438 -38.394531 3.636719 -38.796875 3.753906 -39.203125 Z M 3.117188 -36.605469 C 3.117188 -36.546875 3.175781 -36.546875 3.175781 -36.605469 C 3.117188 -36.199219 3.003906 -35.851562 2.945312 -35.507812 C 2.945312 -35.507812 2.886719 -35.566406 2.886719 -35.566406 C 2.945312 -35.910156 3.058594 -36.257812 3.117188 -36.605469 Z M 2.539062 -34.179688 C 2.597656 -34.292969 2.65625 -34.351562 2.597656 -34.410156 C 2.65625 -34.699219 2.714844 -34.988281 2.828125 -35.277344 C 2.828125 -35.277344 2.886719 -35.277344 2.886719 -35.277344 C 2.597656 -34.0625 2.308594 -32.851562 2.019531 -31.640625 C 2.019531 -31.695312 1.964844 -31.695312 1.964844 -31.753906 C 2.136719 -32.5625 2.367188 -33.371094 2.539062 -34.179688 Z M -2.019531 -10.625 C -2.308594 -9.007812 -2.597656 -7.332031 -2.828125 -5.714844 C -2.886719 -5.371094 -2.945312 -5.082031 -2.945312 -4.734375 C -2.945312 -4.5625 -2.945312 -4.332031 -3.003906 -4.097656 C -2.886719 -4.042969 -2.945312 -3.753906 -3.003906 -3.523438 C -3.117188 -1.730469 -3.117188 0.117188 -3.003906 1.90625 C -2.945312 3.117188 -2.886719 4.445312 -2.539062 5.65625 C -2.65625 5.3125 -2.714844 4.90625 -2.769531 4.503906 C -3.058594 2.308594 -2.714844 -6.464844 -2.308594 -7.21875 C -2.308594 -7.273438 -2.25 -7.910156 -2.195312 -8.542969 C -2.195312 -9.121094 -2.078125 -9.988281 -2.019531 -10.335938 C -1.964844 -10.679688 -1.730469 -12.183594 -1.558594 -13.625 C -1.5 -14.03125 -1.445312 -14.433594 -1.386719 -14.839844 C -1.617188 -13.453125 -1.789062 -12.066406 -2.019531 -10.625 Z M 0.117188 -22.863281 C 0.171875 -22.980469 0.230469 -23.152344 0.289062 -23.324219 C 0.230469 -23.09375 0.171875 -22.921875 0.117188 -22.863281 Z M 1.789062 -31.003906 C 1.789062 -31.003906 1.847656 -31.0625 1.847656 -31.121094 C 1.90625 -31.121094 1.90625 -31.175781 1.90625 -31.175781 C 1.789062 -30.714844 1.675781 -30.253906 1.558594 -29.792969 C 1.386719 -29.214844 1.210938 -28.578125 1.039062 -28 C 1.328125 -28.984375 1.558594 -30.023438 1.789062 -31.003906 Z M 4.445312 3.003906 C 4.386719 3.117188 4.332031 3.175781 4.332031 3.058594 C 4.332031 3.003906 4.386719 2.769531 4.445312 2.65625 C 4.503906 2.539062 4.617188 2.484375 4.617188 2.597656 C 4.617188 2.65625 4.503906 2.886719 4.445312 3.003906 Z M 4.617188 2.195312 C 4.617188 2.136719 4.675781 1.90625 4.734375 1.789062 C 4.851562 1.675781 4.90625 1.617188 4.90625 1.730469 C 4.90625 1.789062 4.851562 2.019531 4.734375 2.136719 C 4.675781 2.25 4.617188 2.308594 4.617188 2.195312 Z M 4.851562 3.175781 C 4.734375 3.40625 4.734375 3.40625 4.734375 3.175781 C 4.734375 3.058594 4.792969 2.769531 4.90625 2.65625 C 4.964844 2.425781 5.023438 2.425781 5.023438 2.65625 C 5.023438 2.769531 4.964844 3.058594 4.851562 3.175781 Z M 5.082031 1.097656 C 4.964844 1.210938 4.90625 1.269531 4.90625 1.210938 C 4.90625 1.097656 5.023438 0.867188 5.082031 0.75 C 5.136719 0.636719 5.195312 0.578125 5.195312 0.691406 C 5.195312 0.75 5.136719 0.980469 5.082031 1.097656 Z M 5.945312 0 C 5.65625 0.980469 5.484375 1.097656 5.65625 0.171875 C 5.832031 -0.691406 5.890625 -0.921875 6.003906 -0.75 C 6.0625 -0.691406 6.003906 -0.347656 5.945312 0 Z M 5.945312 -1.964844 C 5.773438 -1.675781 5.714844 -1.5 5.714844 -1.617188 C 5.714844 -1.90625 6.003906 -2.714844 6.0625 -2.65625 C 6.121094 -2.597656 6.0625 -2.308594 5.945312 -1.964844 Z M 6.410156 -1.90625 C 6.175781 -1.328125 6.121094 -1.269531 6.121094 -1.675781 C 6.121094 -2.078125 6.523438 -2.828125 6.640625 -2.65625 C 6.695312 -2.65625 6.582031 -2.308594 6.410156 -1.90625 Z M 7.160156 -4.734375 C 6.929688 -3.695312 6.695312 -3.234375 6.695312 -3.464844 C 6.640625 -3.578125 6.640625 -3.867188 6.753906 -4.042969 C 6.8125 -4.214844 6.871094 -4.445312 6.871094 -4.5625 C 6.8125 -4.734375 7.101562 -6.410156 7.21875 -6.640625 C 7.332031 -6.871094 7.390625 -6.871094 7.449219 -6.640625 C 7.449219 -6.523438 7.332031 -5.65625 7.160156 -4.734375 Z M 7.738281 -7.5625 C 7.679688 -7.273438 7.5625 -6.984375 7.503906 -6.984375 C 7.390625 -6.984375 7.390625 -7.449219 7.449219 -8.257812 C 7.503906 -8.949219 7.621094 -10.160156 7.621094 -10.96875 C 7.621094 -11.835938 7.679688 -12.355469 7.792969 -12.296875 C 7.910156 -12.183594 7.851562 -8.542969 7.738281 -7.5625 Z M 8.257812 0.460938 C 7.96875 1.328125 7.910156 1.558594 7.910156 1.097656 C 7.910156 0.578125 8.257812 -0.578125 8.371094 -0.460938 C 8.429688 -0.402344 8.371094 -0.0585938 8.257812 0.460938 Z M 8.3125 -13.566406 C 8.3125 -13.566406 8.257812 -13.742188 8.199219 -13.855469 C 8.140625 -13.972656 8.199219 -14.085938 8.257812 -14.085938 C 8.3125 -14.085938 8.371094 -13.972656 8.371094 -13.855469 C 8.371094 -13.742188 8.371094 -13.566406 8.3125 -13.566406 Z M 8.542969 -10.507812 C 8.542969 -10.335938 8.488281 -10.390625 8.488281 -10.738281 C 8.488281 -11.027344 8.542969 -11.144531 8.601562 -11.027344 C 8.601562 -10.910156 8.601562 -10.679688 8.542969 -10.507812 Z M 7.851562 -15.703125 C 8.023438 -15.414062 8.140625 -15.125 8.140625 -15.011719 C 8.140625 -14.894531 8.199219 -14.78125 8.3125 -14.839844 C 8.660156 -14.894531 9.0625 -12.757812 9.121094 -10.796875 C 9.179688 -8.71875 9.0625 -8.140625 8.949219 -9.988281 C 8.777344 -13.046875 8.542969 -14.605469 8.199219 -14.605469 C 8.140625 -14.605469 7.96875 -14.839844 7.910156 -15.125 C 7.5625 -15.933594 7.5625 -16.109375 7.851562 -15.703125 Z M 7.738281 -13.742188 C 7.851562 -13.683594 7.792969 -13.394531 7.792969 -13.105469 L 7.738281 -12.644531 L 7.621094 -13.105469 C 7.503906 -13.625 7.5625 -13.972656 7.738281 -13.742188 Z M 7.332031 -15.761719 L 7.449219 -15.359375 C 7.621094 -14.894531 7.5625 -14.550781 7.390625 -14.722656 C 7.332031 -14.839844 7.273438 -15.070312 7.273438 -15.359375 Z M 7.273438 -12.007812 C 7.273438 -11.257812 7.332031 -10.625 7.332031 -10.507812 C 7.449219 -10.335938 7.160156 -7.96875 6.871094 -6.410156 C 6.582031 -5.082031 6.523438 -4.675781 6.523438 -4.097656 C 6.464844 -3.808594 6.410156 -3.753906 6.234375 -3.753906 C 6.121094 -3.867188 5.945312 -3.578125 5.714844 -2.65625 C 5.542969 -1.964844 5.371094 -1.328125 5.3125 -1.210938 C 5.3125 -1.039062 5.3125 -0.921875 5.425781 -0.867188 C 5.542969 -0.808594 5.484375 -0.691406 5.371094 -0.636719 C 5.195312 -0.519531 4.617188 0.921875 3.636719 3.808594 C 3.40625 4.503906 3.117188 5.253906 2.945312 5.425781 C 2.714844 5.714844 2.65625 5.714844 2.769531 5.542969 C 2.886719 5.023438 2.65625 5.195312 2.308594 5.714844 C 1.964844 6.351562 1.730469 6.351562 1.617188 5.832031 C 1.558594 5.601562 1.5 5.253906 1.5 4.90625 C 1.328125 3.636719 1.675781 -3.636719 1.964844 -5.195312 C 2.019531 -5.65625 2.136719 -6.582031 2.195312 -7.21875 C 2.367188 -9.007812 2.769531 -11.949219 3.175781 -14.144531 C 3.347656 -15.183594 3.578125 -16.453125 3.695312 -16.972656 C 3.753906 -17.492188 3.867188 -18.011719 3.984375 -18.1875 C 4.15625 -18.417969 4.851562 -18.417969 5.136719 -18.128906 C 5.832031 -17.378906 7.160156 -14.261719 6.929688 -13.796875 C 6.871094 -13.683594 6.929688 -13.566406 7.042969 -13.511719 C 7.21875 -13.335938 7.273438 -12.992188 7.273438 -12.007812 Z M 9.988281 -24.652344 C 9.988281 -24.59375 9.871094 -24.480469 9.757812 -24.480469 C 9.699219 -24.480469 9.699219 -24.59375 9.699219 -24.652344 C 9.757812 -24.769531 9.871094 -24.824219 9.929688 -24.824219 C 10.046875 -24.824219 10.046875 -24.769531 9.988281 -24.652344 Z M 10.507812 -24.824219 C 10.160156 -24.824219 10.160156 -24.882812 10.625 -25.171875 C 10.855469 -25.289062 10.910156 -25.289062 10.910156 -25.058594 C 10.910156 -24.882812 10.796875 -24.824219 10.507812 -24.824219 Z M 11.949219 -25.632812 C 11.894531 -25.632812 11.777344 -25.578125 11.777344 -25.460938 C 11.777344 -25.402344 11.664062 -25.34375 11.546875 -25.289062 C 11.488281 -25.171875 11.375 -25.230469 11.375 -25.34375 C 11.375 -25.578125 12.527344 -26.328125 12.757812 -26.328125 C 12.933594 -26.328125 12.125 -25.632812 11.949219 -25.632812 Z M 20.207031 -30.542969 C 20.089844 -30.65625 19.917969 -30.484375 19.746094 -30.253906 C 19.6875 -29.964844 19.457031 -29.847656 19.339844 -29.847656 C 19.226562 -29.847656 19.109375 -29.792969 19.109375 -29.675781 C 18.996094 -29.503906 17.492188 -28.636719 17.378906 -28.753906 C 17.320312 -28.808594 17.261719 -28.808594 17.261719 -28.695312 C 17.261719 -28.578125 16.800781 -28.230469 16.222656 -27.886719 C 14.664062 -26.847656 13.222656 -26.152344 13.164062 -26.328125 C 13.105469 -26.441406 13.742188 -26.90625 16.339844 -28.519531 C 17.148438 -28.984375 17.957031 -29.558594 18.1875 -29.675781 C 18.476562 -29.847656 19.050781 -30.195312 19.570312 -30.542969 C 20.089844 -30.832031 20.726562 -31.292969 21.015625 -31.464844 C 21.59375 -31.871094 21.996094 -31.984375 21.996094 -31.695312 C 21.996094 -31.351562 20.496094 -30.425781 20.207031 -30.542969 Z M 6.871094 -8.257812 C 6.871094 -8.023438 6.929688 -7.910156 6.929688 -8.023438 C 6.984375 -8.140625 6.984375 -8.3125 6.929688 -8.429688 C 6.929688 -8.601562 6.871094 -8.488281 6.871094 -8.257812 Z M 6.929688 -8.949219 C 7.042969 -8.660156 7.160156 -8.71875 7.160156 -9.007812 C 7.160156 -9.179688 7.101562 -9.238281 6.984375 -9.179688 C 6.929688 -9.121094 6.871094 -9.007812 6.929688 -8.949219 Z M 6.929688 -8.949219 "/></g></g></g><g fill="#ff3131" fill-opacity="1"><g transform="translate(116.049936, 232.10997)"><g><path d="M 26.789062 -41.511719 C 26.441406 -42.433594 24.59375 -44.226562 23.324219 -44.976562 C 21.59375 -45.957031 20.148438 -46.304688 17.089844 -46.359375 C 16.28125 -46.359375 15.992188 -46.476562 15.820312 -46.707031 C 15.703125 -46.878906 15.53125 -46.996094 15.359375 -46.996094 C 15.300781 -46.996094 14.894531 -47.226562 14.550781 -47.574219 C 14.203125 -47.863281 13.742188 -48.09375 13.625 -48.09375 C 13.222656 -48.09375 12.472656 -48.441406 12.472656 -48.671875 C 12.472656 -48.785156 12.355469 -48.726562 12.296875 -48.613281 C 12.183594 -48.382812 12.066406 -48.382812 11.777344 -48.554688 C 11.488281 -48.785156 11.316406 -48.726562 10.96875 -48.496094 C 10.796875 -48.382812 10.625 -48.152344 10.625 -48.035156 C 10.679688 -47.921875 10.507812 -47.6875 10.277344 -47.515625 C 9.988281 -47.402344 9.351562 -46.765625 8.832031 -46.246094 C 8.3125 -45.667969 7.449219 -44.859375 7.042969 -44.457031 C 6.410156 -43.878906 6.234375 -43.589844 6.292969 -43.359375 C 6.410156 -43.1875 6.234375 -42.839844 5.945312 -42.492188 C 5.714844 -42.203125 5.542969 -41.859375 5.542969 -41.742188 C 5.542969 -41.570312 5.371094 -41.394531 5.253906 -41.339844 C 5.136719 -41.28125 5.023438 -41.164062 5.023438 -41.050781 C 5.023438 -40.875 4.792969 -40.472656 4.5625 -40.066406 C 3.984375 -39.144531 3.925781 -38.972656 3.523438 -38.164062 C 3.347656 -37.816406 3.058594 -37.46875 2.945312 -37.355469 C 2.828125 -37.238281 2.714844 -37.066406 2.828125 -37.007812 C 2.886719 -36.894531 2.769531 -36.546875 2.597656 -36.199219 C 2.367188 -35.910156 2.136719 -35.277344 1.964844 -34.757812 C 1.789062 -34.292969 1.617188 -33.71875 1.5 -33.542969 C 1.445312 -33.371094 1.328125 -32.964844 1.269531 -32.679688 C 1.15625 -32.332031 1.039062 -31.984375 0.921875 -31.984375 C 0.808594 -31.925781 0.636719 -31.695312 0.636719 -31.464844 C 0.636719 -31.234375 0.460938 -30.542969 0.289062 -29.964844 C -0.460938 -27.539062 -0.578125 -27.078125 -0.75 -25.230469 C -1.15625 -22.515625 -1.039062 -20.957031 -0.578125 -19.6875 C -0.0585938 -18.476562 0.289062 -18.011719 1.789062 -16.917969 C 2.539062 -16.339844 3.289062 -15.644531 3.578125 -15.300781 C 3.984375 -14.722656 4.617188 -14.261719 5.601562 -13.914062 C 6.234375 -13.683594 9.816406 -13.566406 9.929688 -13.855469 C 9.988281 -13.914062 10.277344 -14.03125 10.625 -14.085938 C 11.546875 -14.261719 13.222656 -14.722656 13.855469 -14.953125 C 17.261719 -16.511719 18.476562 -17.609375 20.785156 -20.898438 C 20.957031 -21.132812 21.535156 -21.996094 22.113281 -22.804688 C 22.691406 -23.613281 23.265625 -24.539062 23.441406 -24.769531 C 23.554688 -25.113281 23.84375 -25.460938 23.960938 -25.632812 C 24.882812 -26.730469 26.789062 -31.121094 27.308594 -33.253906 C 27.828125 -35.679688 27.597656 -39.546875 26.789062 -41.511719 Z M 24.019531 -41.972656 C 23.902344 -42.261719 23.960938 -42.320312 24.25 -42.261719 C 24.421875 -42.203125 24.59375 -42.148438 24.652344 -42.148438 C 24.824219 -42.148438 25.113281 -40.933594 25.113281 -39.894531 C 25.113281 -39.375 25.230469 -38.507812 25.402344 -37.988281 C 25.578125 -37.238281 25.578125 -37.007812 25.402344 -36.777344 C 25.289062 -36.660156 25.113281 -36.316406 25.113281 -36.140625 C 25 -35.796875 25.058594 -35.738281 25.289062 -35.796875 C 25.632812 -35.910156 25.632812 -35.851562 25.578125 -35.332031 C 25.289062 -33.890625 24.769531 -32.273438 24.480469 -32.332031 C 24.421875 -32.390625 24.25 -32.332031 24.191406 -32.273438 C 24.132812 -32.160156 24.191406 -32.101562 24.363281 -32.101562 C 24.652344 -32.101562 24.652344 -31.984375 24.421875 -31.640625 C 24.363281 -31.464844 23.902344 -30.542969 23.5 -29.675781 C 22.746094 -28.230469 20.785156 -25.402344 19.804688 -24.480469 C 19.570312 -24.25 19.398438 -24.074219 19.398438 -23.902344 C 19.398438 -23.84375 19.167969 -23.554688 18.996094 -23.210938 C 18.589844 -22.804688 18.476562 -22.746094 18.246094 -22.921875 C 17.957031 -23.09375 17.957031 -23.09375 18.070312 -22.746094 C 18.128906 -22.457031 18.128906 -22.34375 17.839844 -22.34375 C 17.667969 -22.34375 17.4375 -22.171875 17.261719 -21.882812 C 17.148438 -21.652344 16.972656 -21.417969 16.859375 -21.363281 C 16.570312 -21.304688 16.800781 -21.707031 17.4375 -22.457031 C 18.589844 -23.730469 21.304688 -27.65625 21.304688 -28 C 21.304688 -28.117188 21.476562 -28.289062 21.59375 -28.464844 C 21.765625 -28.636719 21.824219 -28.808594 21.765625 -29.15625 C 21.652344 -29.503906 21.707031 -29.675781 21.824219 -29.675781 C 21.996094 -29.675781 21.996094 -29.503906 21.996094 -29.386719 C 21.882812 -29.273438 21.882812 -29.15625 21.9375 -29.15625 C 21.996094 -29.15625 22.863281 -30.832031 23.324219 -31.984375 C 23.441406 -32.332031 23.554688 -32.734375 23.554688 -32.910156 C 23.554688 -33.140625 23.671875 -33.371094 23.730469 -33.371094 C 23.902344 -33.484375 23.902344 -33.71875 23.902344 -33.890625 C 23.902344 -34.0625 23.902344 -34.351562 23.960938 -34.410156 C 24.019531 -34.527344 24.132812 -35.101562 24.25 -35.621094 C 24.421875 -36.488281 24.421875 -36.71875 24.191406 -36.894531 C 23.902344 -37.066406 23.902344 -37.066406 24.191406 -37.179688 C 24.363281 -37.238281 24.421875 -37.585938 24.421875 -38.335938 C 24.421875 -39.316406 24.421875 -39.433594 24.132812 -39.316406 C 23.902344 -39.203125 23.902344 -39.261719 24.191406 -39.546875 C 24.480469 -39.894531 24.480469 -40.183594 24.019531 -41.972656 Z M 22.863281 -32.101562 C 22.863281 -32.160156 22.980469 -32.332031 23.035156 -32.332031 C 23.152344 -32.390625 23.210938 -32.390625 23.210938 -32.273438 C 23.210938 -32.160156 23.152344 -32.042969 23.035156 -31.984375 C 22.980469 -31.984375 22.863281 -31.984375 22.863281 -32.101562 Z M 5.136719 -38.566406 C 5.3125 -38.796875 5.714844 -39.492188 6.121094 -40.011719 C 6.523438 -40.644531 6.871094 -41.105469 6.929688 -41.105469 C 6.984375 -41.105469 6.753906 -40.53125 6.410156 -39.835938 C 6.0625 -39.144531 5.773438 -38.453125 5.832031 -38.453125 C 5.890625 -38.335938 5.890625 -38.335938 5.714844 -38.453125 C 5.601562 -38.453125 5.484375 -38.394531 5.371094 -38.105469 C 5.195312 -37.585938 5.082031 -37.585938 4.964844 -37.875 C 4.90625 -37.988281 5.023438 -38.277344 5.136719 -38.566406 Z M 1.445312 -23.902344 C 1.269531 -23.785156 1.15625 -23.902344 1.15625 -24.019531 C 1.15625 -24.304688 1.445312 -24.363281 1.617188 -24.074219 C 1.675781 -24.019531 1.558594 -23.902344 1.445312 -23.902344 Z M 2.019531 -26.441406 C 1.964844 -26.386719 1.90625 -26.152344 1.964844 -25.921875 C 2.019531 -25.632812 2.019531 -25.460938 1.675781 -25.289062 C 1.269531 -25.113281 1.269531 -25.230469 1.558594 -26.210938 C 1.675781 -26.558594 1.847656 -26.90625 2.019531 -26.960938 C 2.25 -27.078125 2.308594 -26.617188 2.019531 -26.441406 Z M 2.367188 -27.308594 C 2.308594 -27.25 2.195312 -27.367188 2.136719 -27.480469 C 2.019531 -27.945312 2.019531 -28.058594 2.195312 -27.710938 C 2.367188 -27.539062 2.367188 -27.367188 2.367188 -27.308594 Z M 2.539062 -28.347656 C 2.308594 -28.117188 2.195312 -28.117188 2.195312 -28.289062 C 2.195312 -28.695312 2.539062 -29.039062 2.714844 -28.867188 C 2.828125 -28.753906 2.714844 -28.578125 2.539062 -28.347656 Z M 2.886719 -30.023438 C 2.714844 -30.078125 2.714844 -30.195312 2.886719 -30.253906 C 3.058594 -30.367188 3.175781 -30.3125 3.289062 -30.195312 C 3.523438 -30.023438 3.234375 -29.847656 2.886719 -30.023438 Z M 3.753906 -31.464844 C 3.523438 -30.714844 3.578125 -30.714844 3.289062 -30.832031 C 3.058594 -30.886719 3.347656 -31.925781 3.636719 -31.925781 C 3.753906 -31.925781 3.753906 -31.984375 3.695312 -32.160156 C 3.578125 -32.214844 3.636719 -32.273438 3.753906 -32.214844 C 3.867188 -32.160156 3.867188 -31.871094 3.753906 -31.464844 Z M 3.925781 -34.640625 C 3.808594 -34.238281 3.578125 -33.71875 3.464844 -33.542969 C 3.347656 -33.371094 3.234375 -33.023438 3.234375 -32.851562 C 3.234375 -32.679688 3.175781 -32.445312 3.117188 -32.332031 C 3.058594 -32.273438 2.886719 -31.925781 2.714844 -31.582031 C 2.078125 -29.675781 1.847656 -29.15625 1.675781 -28.464844 C 1.617188 -28.058594 1.386719 -27.769531 1.269531 -27.769531 C 1.15625 -27.769531 0.980469 -27.65625 0.980469 -27.539062 C 0.867188 -27.425781 0.867188 -27.425781 0.808594 -27.597656 C 0.808594 -27.886719 1.558594 -30.367188 1.847656 -31.121094 C 1.964844 -31.292969 2.195312 -31.925781 2.367188 -32.445312 C 2.539062 -32.964844 3.058594 -34.179688 3.523438 -35.101562 C 3.925781 -35.96875 4.273438 -36.835938 4.273438 -36.894531 C 4.273438 -37.007812 4.503906 -37.125 4.734375 -37.238281 C 5.136719 -37.414062 5.195312 -37.414062 5.195312 -37.066406 C 5.195312 -36.835938 5.023438 -36.488281 4.851562 -36.199219 C 4.675781 -35.96875 4.503906 -35.679688 4.503906 -35.566406 C 4.503906 -35.449219 4.386719 -35.390625 4.273438 -35.390625 C 4.214844 -35.390625 4.042969 -35.046875 3.925781 -34.640625 Z M 4.503906 -33.371094 C 4.503906 -33.253906 4.386719 -33.140625 4.273438 -33.140625 C 4.097656 -33.140625 4.097656 -33.429688 4.273438 -33.542969 C 4.386719 -33.601562 4.503906 -33.542969 4.503906 -33.371094 Z M 8.542969 -17.609375 C 7.910156 -17.378906 6.753906 -17.089844 6.0625 -17.089844 C 4.675781 -16.917969 4.675781 -16.917969 4.273438 -18.648438 C 4.042969 -19.804688 4.097656 -24.480469 4.386719 -24.941406 C 4.445312 -25.058594 4.5625 -25.519531 4.675781 -26.039062 C 4.734375 -26.558594 4.90625 -27.136719 5.023438 -27.308594 C 5.082031 -27.480469 5.3125 -28.175781 5.484375 -28.808594 C 6.121094 -30.714844 6.695312 -32.332031 7.21875 -33.3125 C 7.503906 -33.832031 7.792969 -34.46875 7.851562 -34.699219 C 7.96875 -34.929688 8.140625 -35.449219 8.429688 -35.796875 C 8.660156 -36.140625 8.832031 -36.488281 8.777344 -36.546875 C 8.777344 -36.660156 8.949219 -37.007812 9.179688 -37.414062 C 9.410156 -37.757812 9.871094 -38.453125 10.105469 -38.972656 C 10.96875 -40.585938 11.316406 -41.050781 11.546875 -41.28125 C 11.71875 -41.394531 12.066406 -41.859375 12.355469 -42.203125 C 12.644531 -42.550781 12.992188 -42.839844 13.222656 -42.839844 C 14.78125 -42.953125 16.628906 -43.011719 19.457031 -43.128906 L 22.691406 -43.242188 L 23.035156 -42.492188 C 23.382812 -41.683594 23.613281 -40.472656 23.671875 -39.203125 C 23.671875 -38.683594 23.785156 -38.277344 23.960938 -38.105469 C 24.363281 -37.757812 24.363281 -37.527344 24.019531 -37.816406 C 23.785156 -37.988281 23.730469 -37.988281 23.671875 -37.757812 C 23.554688 -37.585938 23.554688 -37.414062 23.613281 -37.238281 C 23.730469 -36.894531 23.324219 -34.527344 22.863281 -33.023438 C 22.402344 -31.523438 21.1875 -29.097656 20.035156 -27.425781 C 18.53125 -25.171875 18.476562 -25.113281 17.609375 -24.019531 C 16.628906 -22.691406 13.566406 -19.746094 13.222656 -19.746094 C 13.164062 -19.746094 12.933594 -19.628906 12.703125 -19.457031 C 12.296875 -19.050781 10.277344 -18.128906 8.542969 -17.609375 Z M 12.703125 -17.609375 C 12.472656 -17.378906 11.777344 -17.203125 11.777344 -17.4375 C 11.777344 -17.4375 13.625 -18.589844 13.914062 -18.648438 C 14.03125 -18.707031 13.914062 -18.53125 13.566406 -18.246094 C 13.335938 -17.957031 13.046875 -17.78125 13.046875 -17.78125 C 12.992188 -17.839844 12.875 -17.78125 12.703125 -17.609375 Z M 26.90625 -35.738281 C 26.789062 -35.277344 26.671875 -34.582031 26.617188 -34.121094 C 26.386719 -32.160156 25.113281 -29.214844 23.265625 -26.210938 C 21.476562 -23.324219 20.785156 -22.34375 18.765625 -20.324219 C 16.050781 -17.667969 14.550781 -16.570312 14.203125 -17.148438 C 14.085938 -17.378906 13.972656 -17.378906 13.742188 -17.148438 C 13.566406 -16.972656 13.511719 -16.972656 13.566406 -17.203125 C 13.796875 -17.726562 15.53125 -18.878906 15.933594 -18.765625 C 16.222656 -18.707031 16.28125 -18.765625 16.222656 -18.878906 C 16.164062 -19.339844 16.917969 -19.917969 17.320312 -19.804688 C 17.667969 -19.6875 17.726562 -19.746094 17.609375 -20.035156 C 17.492188 -20.324219 17.550781 -20.496094 17.78125 -20.554688 C 17.957031 -20.613281 20.265625 -23.210938 21.304688 -24.539062 C 22.171875 -25.578125 22.515625 -26.210938 22.515625 -26.328125 C 22.515625 -26.386719 22.746094 -26.789062 23.035156 -27.25 C 23.382812 -27.65625 23.730469 -28.289062 23.902344 -28.695312 C 24.132812 -29.097656 24.421875 -29.675781 24.652344 -30.078125 C 25.058594 -30.832031 25.460938 -31.8125 25.867188 -32.679688 C 26.210938 -33.71875 26.558594 -35.96875 26.558594 -37.816406 C 26.558594 -38.796875 26.558594 -39.546875 26.671875 -39.492188 C 26.90625 -39.261719 27.019531 -36.546875 26.90625 -35.738281 Z M 0.808594 -19.109375 C 0.980469 -18.996094 0.980469 -18.820312 0.980469 -18.820312 C 0.921875 -18.765625 0.808594 -18.820312 0.75 -18.996094 C 0.636719 -19.285156 0.691406 -19.285156 0.808594 -19.109375 Z M 23.902344 -40.472656 C 24.074219 -40.355469 24.074219 -40.183594 24.074219 -40.183594 C 24.019531 -40.125 23.902344 -40.183594 23.84375 -40.355469 C 23.730469 -40.644531 23.785156 -40.644531 23.902344 -40.472656 Z M 23.902344 -40.472656 "/></g></g></g><g fill="#ff3131" fill-opacity="1"><g transform="translate(145.836811, 232.10997)"><g><path d="M 26.789062 -41.511719 C 26.441406 -42.433594 24.59375 -44.226562 23.324219 -44.976562 C 21.59375 -45.957031 20.148438 -46.304688 17.089844 -46.359375 C 16.28125 -46.359375 15.992188 -46.476562 15.820312 -46.707031 C 15.703125 -46.878906 15.53125 -46.996094 15.359375 -46.996094 C 15.300781 -46.996094 14.894531 -47.226562 14.550781 -47.574219 C 14.203125 -47.863281 13.742188 -48.09375 13.625 -48.09375 C 13.222656 -48.09375 12.472656 -48.441406 12.472656 -48.671875 C 12.472656 -48.785156 12.355469 -48.726562 12.296875 -48.613281 C 12.183594 -48.382812 12.066406 -48.382812 11.777344 -48.554688 C 11.488281 -48.785156 11.316406 -48.726562 10.96875 -48.496094 C 10.796875 -48.382812 10.625 -48.152344 10.625 -48.035156 C 10.679688 -47.921875 10.507812 -47.6875 10.277344 -47.515625 C 9.988281 -47.402344 9.351562 -46.765625 8.832031 -46.246094 C 8.3125 -45.667969 7.449219 -44.859375 7.042969 -44.457031 C 6.410156 -43.878906 6.234375 -43.589844 6.292969 -43.359375 C 6.410156 -43.1875 6.234375 -42.839844 5.945312 -42.492188 C 5.714844 -42.203125 5.542969 -41.859375 5.542969 -41.742188 C 5.542969 -41.570312 5.371094 -41.394531 5.253906 -41.339844 C 5.136719 -41.28125 5.023438 -41.164062 5.023438 -41.050781 C 5.023438 -40.875 4.792969 -40.472656 4.5625 -40.066406 C 3.984375 -39.144531 3.925781 -38.972656 3.523438 -38.164062 C 3.347656 -37.816406 3.058594 -37.46875 2.945312 -37.355469 C 2.828125 -37.238281 2.714844 -37.066406 2.828125 -37.007812 C 2.886719 -36.894531 2.769531 -36.546875 2.597656 -36.199219 C 2.367188 -35.910156 2.136719 -35.277344 1.964844 -34.757812 C 1.789062 -34.292969 1.617188 -33.71875 1.5 -33.542969 C 1.445312 -33.371094 1.328125 -32.964844 1.269531 -32.679688 C 1.15625 -32.332031 1.039062 -31.984375 0.921875 -31.984375 C 0.808594 -31.925781 0.636719 -31.695312 0.636719 -31.464844 C 0.636719 -31.234375 0.460938 -30.542969 0.289062 -29.964844 C -0.460938 -27.539062 -0.578125 -27.078125 -0.75 -25.230469 C -1.15625 -22.515625 -1.039062 -20.957031 -0.578125 -19.6875 C -0.0585938 -18.476562 0.289062 -18.011719 1.789062 -16.917969 C 2.539062 -16.339844 3.289062 -15.644531 3.578125 -15.300781 C 3.984375 -14.722656 4.617188 -14.261719 5.601562 -13.914062 C 6.234375 -13.683594 9.816406 -13.566406 9.929688 -13.855469 C 9.988281 -13.914062 10.277344 -14.03125 10.625 -14.085938 C 11.546875 -14.261719 13.222656 -14.722656 13.855469 -14.953125 C 17.261719 -16.511719 18.476562 -17.609375 20.785156 -20.898438 C 20.957031 -21.132812 21.535156 -21.996094 22.113281 -22.804688 C 22.691406 -23.613281 23.265625 -24.539062 23.441406 -24.769531 C 23.554688 -25.113281 23.84375 -25.460938 23.960938 -25.632812 C 24.882812 -26.730469 26.789062 -31.121094 27.308594 -33.253906 C 27.828125 -35.679688 27.597656 -39.546875 26.789062 -41.511719 Z M 24.019531 -41.972656 C 23.902344 -42.261719 23.960938 -42.320312 24.25 -42.261719 C 24.421875 -42.203125 24.59375 -42.148438 24.652344 -42.148438 C 24.824219 -42.148438 25.113281 -40.933594 25.113281 -39.894531 C 25.113281 -39.375 25.230469 -38.507812 25.402344 -37.988281 C 25.578125 -37.238281 25.578125 -37.007812 25.402344 -36.777344 C 25.289062 -36.660156 25.113281 -36.316406 25.113281 -36.140625 C 25 -35.796875 25.058594 -35.738281 25.289062 -35.796875 C 25.632812 -35.910156 25.632812 -35.851562 25.578125 -35.332031 C 25.289062 -33.890625 24.769531 -32.273438 24.480469 -32.332031 C 24.421875 -32.390625 24.25 -32.332031 24.191406 -32.273438 C 24.132812 -32.160156 24.191406 -32.101562 24.363281 -32.101562 C 24.652344 -32.101562 24.652344 -31.984375 24.421875 -31.640625 C 24.363281 -31.464844 23.902344 -30.542969 23.5 -29.675781 C 22.746094 -28.230469 20.785156 -25.402344 19.804688 -24.480469 C 19.570312 -24.25 19.398438 -24.074219 19.398438 -23.902344 C 19.398438 -23.84375 19.167969 -23.554688 18.996094 -23.210938 C 18.589844 -22.804688 18.476562 -22.746094 18.246094 -22.921875 C 17.957031 -23.09375 17.957031 -23.09375 18.070312 -22.746094 C 18.128906 -22.457031 18.128906 -22.34375 17.839844 -22.34375 C 17.667969 -22.34375 17.4375 -22.171875 17.261719 -21.882812 C 17.148438 -21.652344 16.972656 -21.417969 16.859375 -21.363281 C 16.570312 -21.304688 16.800781 -21.707031 17.4375 -22.457031 C 18.589844 -23.730469 21.304688 -27.65625 21.304688 -28 C 21.304688 -28.117188 21.476562 -28.289062 21.59375 -28.464844 C 21.765625 -28.636719 21.824219 -28.808594 21.765625 -29.15625 C 21.652344 -29.503906 21.707031 -29.675781 21.824219 -29.675781 C 21.996094 -29.675781 21.996094 -29.503906 21.996094 -29.386719 C 21.882812 -29.273438 21.882812 -29.15625 21.9375 -29.15625 C 21.996094 -29.15625 22.863281 -30.832031 23.324219 -31.984375 C 23.441406 -32.332031 23.554688 -32.734375 23.554688 -32.910156 C 23.554688 -33.140625 23.671875 -33.371094 23.730469 -33.371094 C 23.902344 -33.484375 23.902344 -33.71875 23.902344 -33.890625 C 23.902344 -34.0625 23.902344 -34.351562 23.960938 -34.410156 C 24.019531 -34.527344 24.132812 -35.101562 24.25 -35.621094 C 24.421875 -36.488281 24.421875 -36.71875 24.191406 -36.894531 C 23.902344 -37.066406 23.902344 -37.066406 24.191406 -37.179688 C 24.363281 -37.238281 24.421875 -37.585938 24.421875 -38.335938 C 24.421875 -39.316406 24.421875 -39.433594 24.132812 -39.316406 C 23.902344 -39.203125 23.902344 -39.261719 24.191406 -39.546875 C 24.480469 -39.894531 24.480469 -40.183594 24.019531 -41.972656 Z M 22.863281 -32.101562 C 22.863281 -32.160156 22.980469 -32.332031 23.035156 -32.332031 C 23.152344 -32.390625 23.210938 -32.390625 23.210938 -32.273438 C 23.210938 -32.160156 23.152344 -32.042969 23.035156 -31.984375 C 22.980469 -31.984375 22.863281 -31.984375 22.863281 -32.101562 Z M 5.136719 -38.566406 C 5.3125 -38.796875 5.714844 -39.492188 6.121094 -40.011719 C 6.523438 -40.644531 6.871094 -41.105469 6.929688 -41.105469 C 6.984375 -41.105469 6.753906 -40.53125 6.410156 -39.835938 C 6.0625 -39.144531 5.773438 -38.453125 5.832031 -38.453125 C 5.890625 -38.335938 5.890625 -38.335938 5.714844 -38.453125 C 5.601562 -38.453125 5.484375 -38.394531 5.371094 -38.105469 C 5.195312 -37.585938 5.082031 -37.585938 4.964844 -37.875 C 4.90625 -37.988281 5.023438 -38.277344 5.136719 -38.566406 Z M 1.445312 -23.902344 C 1.269531 -23.785156 1.15625 -23.902344 1.15625 -24.019531 C 1.15625 -24.304688 1.445312 -24.363281 1.617188 -24.074219 C 1.675781 -24.019531 1.558594 -23.902344 1.445312 -23.902344 Z M 2.019531 -26.441406 C 1.964844 -26.386719 1.90625 -26.152344 1.964844 -25.921875 C 2.019531 -25.632812 2.019531 -25.460938 1.675781 -25.289062 C 1.269531 -25.113281 1.269531 -25.230469 1.558594 -26.210938 C 1.675781 -26.558594 1.847656 -26.90625 2.019531 -26.960938 C 2.25 -27.078125 2.308594 -26.617188 2.019531 -26.441406 Z M 2.367188 -27.308594 C 2.308594 -27.25 2.195312 -27.367188 2.136719 -27.480469 C 2.019531 -27.945312 2.019531 -28.058594 2.195312 -27.710938 C 2.367188 -27.539062 2.367188 -27.367188 2.367188 -27.308594 Z M 2.539062 -28.347656 C 2.308594 -28.117188 2.195312 -28.117188 2.195312 -28.289062 C 2.195312 -28.695312 2.539062 -29.039062 2.714844 -28.867188 C 2.828125 -28.753906 2.714844 -28.578125 2.539062 -28.347656 Z M 2.886719 -30.023438 C 2.714844 -30.078125 2.714844 -30.195312 2.886719 -30.253906 C 3.058594 -30.367188 3.175781 -30.3125 3.289062 -30.195312 C 3.523438 -30.023438 3.234375 -29.847656 2.886719 -30.023438 Z M 3.753906 -31.464844 C 3.523438 -30.714844 3.578125 -30.714844 3.289062 -30.832031 C 3.058594 -30.886719 3.347656 -31.925781 3.636719 -31.925781 C 3.753906 -31.925781 3.753906 -31.984375 3.695312 -32.160156 C 3.578125 -32.214844 3.636719 -32.273438 3.753906 -32.214844 C 3.867188 -32.160156 3.867188 -31.871094 3.753906 -31.464844 Z M 3.925781 -34.640625 C 3.808594 -34.238281 3.578125 -33.71875 3.464844 -33.542969 C 3.347656 -33.371094 3.234375 -33.023438 3.234375 -32.851562 C 3.234375 -32.679688 3.175781 -32.445312 3.117188 -32.332031 C 3.058594 -32.273438 2.886719 -31.925781 2.714844 -31.582031 C 2.078125 -29.675781 1.847656 -29.15625 1.675781 -28.464844 C 1.617188 -28.058594 1.386719 -27.769531 1.269531 -27.769531 C 1.15625 -27.769531 0.980469 -27.65625 0.980469 -27.539062 C 0.867188 -27.425781 0.867188 -27.425781 0.808594 -27.597656 C 0.808594 -27.886719 1.558594 -30.367188 1.847656 -31.121094 C 1.964844 -31.292969 2.195312 -31.925781 2.367188 -32.445312 C 2.539062 -32.964844 3.058594 -34.179688 3.523438 -35.101562 C 3.925781 -35.96875 4.273438 -36.835938 4.273438 -36.894531 C 4.273438 -37.007812 4.503906 -37.125 4.734375 -37.238281 C 5.136719 -37.414062 5.195312 -37.414062 5.195312 -37.066406 C 5.195312 -36.835938 5.023438 -36.488281 4.851562 -36.199219 C 4.675781 -35.96875 4.503906 -35.679688 4.503906 -35.566406 C 4.503906 -35.449219 4.386719 -35.390625 4.273438 -35.390625 C 4.214844 -35.390625 4.042969 -35.046875 3.925781 -34.640625 Z M 4.503906 -33.371094 C 4.503906 -33.253906 4.386719 -33.140625 4.273438 -33.140625 C 4.097656 -33.140625 4.097656 -33.429688 4.273438 -33.542969 C 4.386719 -33.601562 4.503906 -33.542969 4.503906 -33.371094 Z M 8.542969 -17.609375 C 7.910156 -17.378906 6.753906 -17.089844 6.0625 -17.089844 C 4.675781 -16.917969 4.675781 -16.917969 4.273438 -18.648438 C 4.042969 -19.804688 4.097656 -24.480469 4.386719 -24.941406 C 4.445312 -25.058594 4.5625 -25.519531 4.675781 -26.039062 C 4.734375 -26.558594 4.90625 -27.136719 5.023438 -27.308594 C 5.082031 -27.480469 5.3125 -28.175781 5.484375 -28.808594 C 6.121094 -30.714844 6.695312 -32.332031 7.21875 -33.3125 C 7.503906 -33.832031 7.792969 -34.46875 7.851562 -34.699219 C 7.96875 -34.929688 8.140625 -35.449219 8.429688 -35.796875 C 8.660156 -36.140625 8.832031 -36.488281 8.777344 -36.546875 C 8.777344 -36.660156 8.949219 -37.007812 9.179688 -37.414062 C 9.410156 -37.757812 9.871094 -38.453125 10.105469 -38.972656 C 10.96875 -40.585938 11.316406 -41.050781 11.546875 -41.28125 C 11.71875 -41.394531 12.066406 -41.859375 12.355469 -42.203125 C 12.644531 -42.550781 12.992188 -42.839844 13.222656 -42.839844 C 14.78125 -42.953125 16.628906 -43.011719 19.457031 -43.128906 L 22.691406 -43.242188 L 23.035156 -42.492188 C 23.382812 -41.683594 23.613281 -40.472656 23.671875 -39.203125 C 23.671875 -38.683594 23.785156 -38.277344 23.960938 -38.105469 C 24.363281 -37.757812 24.363281 -37.527344 24.019531 -37.816406 C 23.785156 -37.988281 23.730469 -37.988281 23.671875 -37.757812 C 23.554688 -37.585938 23.554688 -37.414062 23.613281 -37.238281 C 23.730469 -36.894531 23.324219 -34.527344 22.863281 -33.023438 C 22.402344 -31.523438 21.1875 -29.097656 20.035156 -27.425781 C 18.53125 -25.171875 18.476562 -25.113281 17.609375 -24.019531 C 16.628906 -22.691406 13.566406 -19.746094 13.222656 -19.746094 C 13.164062 -19.746094 12.933594 -19.628906 12.703125 -19.457031 C 12.296875 -19.050781 10.277344 -18.128906 8.542969 -17.609375 Z M 12.703125 -17.609375 C 12.472656 -17.378906 11.777344 -17.203125 11.777344 -17.4375 C 11.777344 -17.4375 13.625 -18.589844 13.914062 -18.648438 C 14.03125 -18.707031 13.914062 -18.53125 13.566406 -18.246094 C 13.335938 -17.957031 13.046875 -17.78125 13.046875 -17.78125 C 12.992188 -17.839844 12.875 -17.78125 12.703125 -17.609375 Z M 26.90625 -35.738281 C 26.789062 -35.277344 26.671875 -34.582031 26.617188 -34.121094 C 26.386719 -32.160156 25.113281 -29.214844 23.265625 -26.210938 C 21.476562 -23.324219 20.785156 -22.34375 18.765625 -20.324219 C 16.050781 -17.667969 14.550781 -16.570312 14.203125 -17.148438 C 14.085938 -17.378906 13.972656 -17.378906 13.742188 -17.148438 C 13.566406 -16.972656 13.511719 -16.972656 13.566406 -17.203125 C 13.796875 -17.726562 15.53125 -18.878906 15.933594 -18.765625 C 16.222656 -18.707031 16.28125 -18.765625 16.222656 -18.878906 C 16.164062 -19.339844 16.917969 -19.917969 17.320312 -19.804688 C 17.667969 -19.6875 17.726562 -19.746094 17.609375 -20.035156 C 17.492188 -20.324219 17.550781 -20.496094 17.78125 -20.554688 C 17.957031 -20.613281 20.265625 -23.210938 21.304688 -24.539062 C 22.171875 -25.578125 22.515625 -26.210938 22.515625 -26.328125 C 22.515625 -26.386719 22.746094 -26.789062 23.035156 -27.25 C 23.382812 -27.65625 23.730469 -28.289062 23.902344 -28.695312 C 24.132812 -29.097656 24.421875 -29.675781 24.652344 -30.078125 C 25.058594 -30.832031 25.460938 -31.8125 25.867188 -32.679688 C 26.210938 -33.71875 26.558594 -35.96875 26.558594 -37.816406 C 26.558594 -38.796875 26.558594 -39.546875 26.671875 -39.492188 C 26.90625 -39.261719 27.019531 -36.546875 26.90625 -35.738281 Z M 0.808594 -19.109375 C 0.980469 -18.996094 0.980469 -18.820312 0.980469 -18.820312 C 0.921875 -18.765625 0.808594 -18.820312 0.75 -18.996094 C 0.636719 -19.285156 0.691406 -19.285156 0.808594 -19.109375 Z M 23.902344 -40.472656 C 24.074219 -40.355469 24.074219 -40.183594 24.074219 -40.183594 C 24.019531 -40.125 23.902344 -40.183594 23.84375 -40.355469 C 23.730469 -40.644531 23.785156 -40.644531 23.902344 -40.472656 Z M 23.902344 -40.472656 "/></g></g></g><g fill="#5ce1e6" fill-opacity="1"><g transform="translate(175.616339, 232.10997)"><g><path d="M 53.175781 -85.390625 C 53.230469 -85.679688 53.230469 -85.910156 53.175781 -85.910156 C 52.367188 -87.351562 50.519531 -87.527344 48.902344 -87.585938 C 48.265625 -86.488281 47.6875 -85.390625 47.113281 -84.292969 C 46.59375 -83.195312 45.898438 -81.984375 45.496094 -81.40625 C 45.207031 -80.886719 44.800781 -80.078125 44.6875 -79.730469 C 44.570312 -79.386719 44.339844 -78.921875 44.167969 -78.691406 C 43.992188 -78.460938 43.761719 -78 43.707031 -77.652344 C 43.589844 -77.019531 42.261719 -74.476562 40.933594 -72.515625 C 39.78125 -70.726562 37.179688 -66.105469 37.179688 -65.816406 C 37.179688 -65.703125 37.125 -65.585938 37.066406 -65.527344 C 36.894531 -65.527344 35.046875 -62.699219 35.046875 -62.46875 C 35.046875 -62.355469 35.160156 -62.355469 35.332031 -62.410156 C 35.621094 -62.527344 35.621094 -62.527344 35.449219 -62.355469 C 35.332031 -62.238281 35.21875 -62.066406 35.332031 -62.007812 C 35.332031 -61.949219 35.277344 -61.71875 35.101562 -61.546875 C 34.871094 -61.371094 34.8125 -61.371094 34.929688 -61.601562 C 34.988281 -61.835938 34.988281 -61.949219 34.929688 -61.949219 C 34.757812 -61.949219 34.582031 -61.546875 33.890625 -60.390625 C 32.964844 -58.660156 32.792969 -58.195312 32.851562 -58.082031 C 32.910156 -58.023438 32.910156 -57.964844 32.792969 -58.023438 C 32.621094 -58.082031 32.445312 -57.792969 32.101562 -57.273438 C 31.871094 -56.8125 31.351562 -55.828125 30.945312 -55.136719 C 30.542969 -54.445312 30.195312 -53.75 30.136719 -53.578125 C 30.078125 -53.40625 29.964844 -53.230469 29.90625 -53.230469 C 29.792969 -53.230469 29.734375 -53.175781 29.734375 -53.058594 C 29.734375 -53 29.503906 -52.597656 29.273438 -52.191406 C 28.925781 -51.613281 28.808594 -51.328125 28.925781 -50.980469 C 28.984375 -50.632812 28.984375 -50.519531 28.808594 -50.75 C 28.695312 -50.980469 28.636719 -50.980469 28.464844 -50.691406 C 28.347656 -50.519531 28.175781 -50.402344 28 -50.460938 C 27.886719 -50.519531 27.769531 -50.460938 27.769531 -50.34375 C 27.769531 -50.230469 27.828125 -50.230469 27.945312 -50.230469 C 28.175781 -50.402344 28.175781 -50.289062 27.828125 -49.535156 C 27.597656 -49.074219 27.480469 -48.960938 27.308594 -49.074219 C 27.191406 -49.191406 27.019531 -49.191406 26.960938 -49.074219 C 26.90625 -48.902344 26.90625 -48.785156 27.019531 -48.726562 C 27.191406 -48.613281 27.191406 -48.441406 26.960938 -48.035156 C 26.789062 -47.632812 26.617188 -47.515625 26.5 -47.632812 C 26.441406 -47.746094 26.328125 -47.746094 26.269531 -47.6875 C 26.210938 -47.515625 26.269531 -47.457031 26.386719 -47.402344 C 26.5 -47.402344 26.386719 -46.996094 25.980469 -46.304688 C 25.632812 -45.726562 25.289062 -45.089844 25.230469 -44.917969 C 25.058594 -44.339844 24.480469 -44.515625 23.960938 -45.207031 C 23.5 -45.785156 22.171875 -46.9375 21.882812 -46.9375 C 21.824219 -46.9375 21.417969 -47.226562 20.957031 -47.515625 C 20.554688 -47.863281 19.804688 -48.265625 19.398438 -48.382812 C 18.996094 -48.554688 18.1875 -48.902344 17.550781 -49.191406 C 15.820312 -49.882812 13.796875 -50 13.046875 -49.246094 C 12.933594 -49.132812 12.644531 -49.015625 12.472656 -49.074219 C 12.238281 -49.074219 12.007812 -49.015625 11.894531 -48.84375 C 11.777344 -48.671875 11.429688 -48.441406 11.144531 -48.324219 C 10.335938 -47.863281 7.332031 -44.746094 7.332031 -44.28125 C 7.332031 -44.226562 7.273438 -44.109375 7.160156 -44.050781 C 6.929688 -43.992188 4.445312 -39.953125 3.808594 -38.566406 C 2.769531 -36.488281 0.980469 -31.753906 0.578125 -30.195312 C 0.460938 -29.617188 0.171875 -28.519531 0 -27.769531 C -0.402344 -26.152344 -0.980469 -22.980469 -0.980469 -22.054688 C -0.980469 -21.707031 -0.808594 -20.785156 -0.636719 -20.089844 C -0.460938 -19.339844 -0.117188 -18.070312 0.0585938 -17.261719 C 0.230469 -16.453125 0.402344 -15.644531 0.460938 -15.472656 C 0.519531 -15.183594 0.519531 -15.183594 0.289062 -15.359375 C -0.289062 -15.820312 0 -15.359375 0.867188 -14.550781 C 1.328125 -14.144531 1.675781 -13.683594 1.675781 -13.625 C 1.675781 -13.511719 1.789062 -13.453125 1.90625 -13.453125 C 2.019531 -13.453125 2.308594 -13.277344 2.539062 -13.105469 C 3.175781 -12.585938 4.964844 -11.949219 5.714844 -12.007812 C 6.351562 -12.066406 7.621094 -12.585938 7.621094 -12.933594 C 7.621094 -12.992188 7.910156 -13.394531 8.199219 -13.742188 C 9.640625 -15.414062 10.625 -16.683594 11.316406 -17.957031 C 11.777344 -18.707031 12.355469 -19.628906 12.644531 -20.089844 C 12.875 -20.496094 13.105469 -20.898438 13.105469 -20.957031 C 13.105469 -21.074219 13.394531 -21.476562 13.625 -21.824219 C 13.972656 -22.226562 14.203125 -22.632812 14.203125 -22.746094 C 14.203125 -22.863281 14.664062 -23.671875 15.300781 -24.59375 C 15.933594 -25.460938 16.511719 -26.558594 16.742188 -27.019531 C 16.917969 -27.480469 17.203125 -28 17.378906 -28.175781 C 17.550781 -28.347656 17.839844 -28.925781 18.011719 -29.386719 C 18.1875 -29.90625 18.476562 -30.425781 18.648438 -30.542969 C 18.878906 -30.773438 18.996094 -31.003906 18.996094 -31.175781 C 18.996094 -31.351562 19.109375 -31.582031 19.285156 -31.640625 C 19.628906 -31.871094 21.132812 -34.238281 21.132812 -34.527344 C 21.132812 -34.8125 23.960938 -39.144531 24.421875 -39.546875 C 24.652344 -39.78125 25.058594 -40.414062 25.402344 -41.050781 C 25.75 -41.683594 26.097656 -42.320312 26.210938 -42.492188 C 26.386719 -42.550781 26.441406 -42.722656 26.441406 -42.898438 C 26.441406 -43.011719 26.558594 -43.1875 26.730469 -43.300781 C 26.847656 -43.417969 27.019531 -43.761719 27.078125 -43.9375 C 27.136719 -44.226562 27.367188 -44.570312 27.539062 -44.800781 C 27.710938 -45.035156 27.886719 -45.320312 27.886719 -45.378906 C 27.886719 -45.554688 28 -45.726562 28.175781 -45.839844 C 28.289062 -46.015625 28.40625 -46.246094 28.347656 -46.476562 C 28.289062 -46.765625 28.40625 -47.054688 28.753906 -47.402344 C 29.328125 -48.035156 30.195312 -49.480469 30.195312 -49.882812 C 30.195312 -50.054688 30.3125 -50.171875 30.367188 -50.171875 C 30.484375 -50.171875 30.542969 -50.289062 30.542969 -50.460938 C 30.542969 -50.691406 30.886719 -51.441406 31.121094 -51.613281 C 31.40625 -51.847656 32.042969 -52.941406 32.042969 -53.175781 C 32.042969 -53.347656 32.390625 -53.808594 32.792969 -54.214844 C 33.253906 -54.734375 33.484375 -55.136719 33.542969 -55.597656 C 33.601562 -55.886719 33.773438 -56.40625 33.949219 -56.582031 C 34.179688 -56.8125 34.292969 -57.101562 34.292969 -57.273438 C 34.292969 -57.386719 34.527344 -57.964844 34.8125 -58.484375 C 35.101562 -59.003906 35.738281 -60.21875 36.199219 -61.140625 C 37.527344 -63.738281 38.453125 -65.296875 38.507812 -65.296875 C 38.507812 -65.296875 38.277344 -64.546875 37.988281 -63.683594 C 37.644531 -62.757812 37.296875 -61.835938 37.238281 -61.660156 C 37.179688 -61.488281 37.007812 -61.140625 36.949219 -60.96875 C 36.835938 -60.796875 36.605469 -60.101562 36.429688 -59.523438 C 36.199219 -58.949219 35.851562 -58.082031 35.679688 -57.5625 C 35.449219 -57.101562 34.582031 -54.558594 33.71875 -51.960938 C 32.792969 -49.421875 31.753906 -46.359375 31.351562 -45.207031 C 30.945312 -44.109375 30.542969 -42.839844 30.425781 -42.378906 C 30.253906 -41.972656 30.023438 -41.164062 29.792969 -40.585938 C 29.386719 -39.203125 29.273438 -38.738281 28.808594 -37.179688 C 28.636719 -36.375 28.117188 -34.757812 27.710938 -33.429688 C 26.617188 -29.734375 24.363281 -20.378906 23.613281 -16.28125 C 23.441406 -15.359375 23.152344 -13.742188 22.921875 -12.703125 C 22.402344 -9.699219 22.285156 -7.679688 22.574219 -6.175781 C 22.746094 -5.425781 23.035156 -4.675781 23.09375 -4.445312 C 23.324219 -3.925781 24.882812 -2.769531 25.289062 -2.769531 C 25.460938 -2.769531 25.867188 -2.714844 26.152344 -2.597656 C 26.5 -2.425781 26.960938 -2.308594 27.191406 -2.25 C 27.425781 -2.136719 27.710938 -2.136719 27.886719 -2.25 C 28.058594 -2.308594 28.347656 -2.484375 28.578125 -2.597656 C 29.097656 -2.828125 29.328125 -3.175781 28.925781 -3.175781 C 28.808594 -3.175781 28.808594 -3.289062 28.808594 -3.464844 C 28.867188 -3.636719 28.753906 -3.925781 28.519531 -4.214844 C 27.886719 -4.851562 27.710938 -5.601562 27.480469 -7.621094 C 27.425781 -8.023438 27.710938 -10.160156 28.058594 -11.605469 C 28.175781 -12.296875 28.464844 -13.566406 28.519531 -14.375 C 28.753906 -16.109375 29.328125 -19.167969 29.734375 -20.957031 C 29.90625 -21.652344 30.136719 -22.574219 30.195312 -22.980469 C 30.3125 -23.441406 30.542969 -24.132812 30.65625 -24.480469 C 30.773438 -24.882812 31.003906 -25.867188 31.121094 -26.671875 C 31.292969 -27.539062 31.582031 -28.867188 31.925781 -29.675781 C 32.445312 -31.234375 32.621094 -31.8125 32.910156 -32.910156 C 32.964844 -33.253906 33.199219 -33.660156 33.3125 -33.890625 C 33.371094 -34.0625 33.601562 -34.699219 33.660156 -35.21875 C 33.949219 -36.777344 34.929688 -40.066406 35.101562 -40.414062 C 35.21875 -40.472656 35.390625 -40.992188 35.566406 -41.511719 C 35.738281 -42.03125 35.96875 -42.433594 36.140625 -42.550781 C 36.257812 -42.609375 36.375 -42.78125 36.375 -43.011719 C 36.375 -43.1875 36.488281 -43.417969 36.605469 -43.472656 C 36.660156 -43.53125 36.71875 -43.878906 36.71875 -44.226562 C 36.660156 -44.746094 36.71875 -45.035156 36.949219 -45.4375 C 37.125 -45.726562 37.238281 -46.074219 37.179688 -46.246094 C 37.179688 -46.417969 37.179688 -46.648438 37.296875 -46.824219 C 37.414062 -46.9375 37.46875 -47.054688 37.414062 -47.054688 C 37.296875 -47.054688 37.414062 -47.167969 37.527344 -47.402344 C 37.699219 -47.574219 37.933594 -48.09375 37.988281 -48.554688 C 38.164062 -48.960938 38.335938 -49.363281 38.394531 -49.363281 C 38.625 -49.421875 39.144531 -50.691406 39.027344 -51.09375 C 39.027344 -51.328125 39.027344 -51.5 39.144531 -51.5 C 39.203125 -51.5 39.261719 -51.671875 39.203125 -51.789062 C 39.144531 -51.960938 39.203125 -52.191406 39.261719 -52.25 C 39.316406 -52.421875 39.492188 -52.941406 39.664062 -53.519531 C 39.78125 -54.097656 39.953125 -54.558594 40.066406 -54.617188 C 40.125 -54.675781 40.183594 -54.90625 40.183594 -55.078125 C 40.183594 -55.195312 40.414062 -55.714844 40.644531 -56.234375 C 40.875 -56.695312 41.105469 -57.214844 41.105469 -57.332031 C 41.105469 -57.445312 41.164062 -57.5625 41.28125 -57.5625 C 41.394531 -57.5625 41.453125 -57.675781 41.394531 -57.910156 C 41.339844 -58.195312 41.511719 -58.773438 41.914062 -59.871094 C 42.089844 -60.101562 42.320312 -60.679688 42.492188 -61.140625 C 42.609375 -61.546875 43.011719 -62.410156 43.300781 -63.046875 C 43.53125 -63.683594 43.761719 -64.257812 43.761719 -64.433594 C 43.761719 -64.605469 43.992188 -65.007812 44.226562 -65.355469 C 44.515625 -65.703125 44.746094 -66.394531 44.800781 -66.855469 C 44.859375 -67.320312 45.035156 -67.78125 45.148438 -67.894531 C 45.320312 -68.011719 45.378906 -68.300781 45.378906 -68.53125 C 45.378906 -68.703125 45.554688 -69.050781 45.785156 -69.222656 C 45.957031 -69.398438 46.1875 -69.917969 46.304688 -70.320312 C 46.707031 -71.824219 47.285156 -73.382812 47.804688 -74.421875 C 48.152344 -74.996094 48.554688 -75.863281 48.726562 -76.382812 C 48.902344 -76.84375 49.191406 -77.421875 49.304688 -77.539062 C 49.421875 -77.652344 49.765625 -78.289062 49.941406 -78.867188 C 50.230469 -79.445312 50.519531 -79.90625 50.574219 -79.964844 C 50.691406 -80.019531 50.863281 -80.367188 50.980469 -80.714844 C 51.09375 -81.117188 51.5 -81.925781 51.847656 -82.5625 C 52.191406 -83.195312 52.710938 -84.234375 52.941406 -84.8125 C 53 -84.984375 53.058594 -85.21875 53.175781 -85.390625 Z M 22.226562 -39.78125 C 22.171875 -39.722656 22.054688 -39.722656 22.054688 -39.835938 C 22.054688 -39.953125 22.171875 -40.066406 22.226562 -40.066406 C 22.34375 -40.066406 22.402344 -40.011719 22.402344 -39.953125 C 22.402344 -39.953125 22.34375 -39.835938 22.226562 -39.78125 Z M 22.574219 -40.703125 C 22.171875 -40.761719 21.652344 -39.605469 21.9375 -39.492188 C 22.113281 -39.375 22.054688 -39.316406 21.882812 -39.316406 C 21.707031 -39.316406 21.535156 -39.203125 21.476562 -39.027344 C 21.417969 -38.855469 21.417969 -38.796875 21.59375 -38.855469 C 21.652344 -38.972656 21.59375 -38.738281 21.417969 -38.453125 C 21.246094 -38.164062 20.957031 -37.875 20.84375 -37.875 C 20.785156 -37.875 20.613281 -37.699219 20.613281 -37.46875 C 20.613281 -37.007812 20.148438 -36.199219 20.089844 -36.546875 C 20.089844 -36.660156 20.035156 -36.71875 19.917969 -36.660156 C 19.859375 -36.605469 19.804688 -36.429688 19.859375 -36.257812 C 19.859375 -36.085938 19.804688 -35.851562 19.570312 -35.679688 C 19.398438 -35.566406 19.226562 -35.390625 19.226562 -35.277344 C 19.226562 -35.21875 19.050781 -34.929688 18.765625 -34.640625 C 18.011719 -33.832031 16.972656 -32.332031 16.683594 -31.695312 C 16.511719 -31.292969 16.050781 -30.597656 15.644531 -30.023438 C 15.242188 -29.503906 14.953125 -28.925781 14.953125 -28.925781 C 14.953125 -28.808594 14.664062 -28.347656 14.261719 -27.886719 C 13.914062 -27.480469 13.453125 -26.847656 13.335938 -26.558594 C 12.933594 -25.867188 12.585938 -25.289062 12.472656 -25.113281 C 12.414062 -25.113281 12.183594 -24.652344 11.835938 -24.191406 C 11.605469 -23.730469 11.257812 -23.324219 11.199219 -23.324219 C 11.144531 -23.324219 11.027344 -23.210938 11.027344 -23.152344 C 11.027344 -22.863281 9.46875 -20.4375 9.179688 -20.265625 C 9.121094 -20.148438 8.890625 -19.859375 8.71875 -19.515625 C 8.542969 -19.226562 8.199219 -18.820312 7.96875 -18.589844 C 7.738281 -18.359375 7.503906 -18.128906 7.503906 -18.070312 C 7.503906 -17.957031 7.332031 -17.726562 7.101562 -17.609375 C 6.871094 -17.378906 6.410156 -17.03125 6.121094 -16.683594 C 5.136719 -15.703125 4.964844 -15.644531 4.851562 -16.28125 C 4.675781 -17.148438 4.734375 -18.476562 5.023438 -20.089844 C 5.3125 -21.535156 5.371094 -21.996094 6.234375 -25.402344 C 6.695312 -27.425781 8.082031 -31.582031 8.660156 -32.621094 C 8.890625 -33.082031 9.410156 -34.179688 9.871094 -35.046875 C 10.277344 -35.96875 10.96875 -37.125 11.316406 -37.644531 C 11.664062 -38.164062 11.949219 -38.625 11.949219 -38.683594 C 11.949219 -38.738281 13.335938 -40.875 13.914062 -41.511719 C 15.070312 -42.953125 15.589844 -43.53125 15.703125 -43.53125 C 15.761719 -43.53125 16.339844 -43.992188 16.917969 -44.515625 C 17.492188 -45.035156 18.128906 -45.4375 18.300781 -45.496094 C 18.878906 -45.609375 18.878906 -45.609375 19.167969 -45.785156 C 19.339844 -45.898438 19.515625 -45.839844 19.804688 -45.554688 C 20.957031 -44.167969 21.363281 -43.648438 21.59375 -43.011719 C 21.652344 -42.550781 21.9375 -42.203125 22.113281 -42.148438 C 22.515625 -42.03125 22.804688 -41.625 22.746094 -41.394531 C 22.691406 -41.222656 22.691406 -41.105469 22.804688 -41.105469 C 22.921875 -41.164062 22.921875 -41.050781 22.921875 -40.933594 C 22.863281 -40.761719 22.746094 -40.703125 22.574219 -40.703125 Z M 24.59375 -17.667969 C 24.480469 -17.609375 24.421875 -17.609375 24.421875 -17.78125 C 24.421875 -17.957031 24.480469 -18.128906 24.59375 -18.1875 C 24.710938 -18.246094 24.769531 -18.1875 24.769531 -18.011719 C 24.769531 -17.898438 24.710938 -17.726562 24.59375 -17.667969 Z M 25 -19.515625 C 24.652344 -19.167969 24.710938 -19.339844 25.171875 -21.132812 C 25.402344 -22.171875 25.519531 -22.285156 25.402344 -21.707031 C 25.289062 -21.1875 25.230469 -20.554688 25.289062 -20.265625 C 25.289062 -19.976562 25.230469 -19.628906 25 -19.515625 Z M 26.441406 -23.5 C 26.269531 -22.980469 26.269531 -22.980469 26.269531 -23.382812 C 26.269531 -23.613281 26.328125 -23.960938 26.5 -24.191406 C 26.671875 -24.421875 26.730469 -24.480469 26.730469 -24.304688 C 26.730469 -24.191406 26.617188 -23.785156 26.441406 -23.5 Z M 28.175781 -29.617188 C 27.769531 -28.175781 27.65625 -28.058594 27.828125 -29.214844 C 27.828125 -29.734375 27.886719 -30.425781 27.886719 -30.714844 C 27.886719 -31.0625 28 -31.292969 28.117188 -31.292969 C 28.175781 -31.351562 28.230469 -31.175781 28.175781 -31.0625 C 28.117188 -30.945312 28.175781 -30.832031 28.230469 -30.773438 C 28.40625 -30.714844 28.347656 -30.367188 28.175781 -29.617188 Z M 34.527344 -46.59375 C 34.640625 -46.648438 34.699219 -46.648438 34.699219 -46.535156 C 34.699219 -46.417969 34.640625 -46.304688 34.527344 -46.246094 C 34.410156 -46.1875 34.351562 -46.1875 34.351562 -46.246094 C 34.351562 -46.417969 34.410156 -46.535156 34.527344 -46.59375 Z M 32.851562 -38.164062 C 32.964844 -38.453125 33.023438 -38.453125 33.023438 -37.933594 C 33.023438 -37.644531 32.964844 -37.355469 32.792969 -37.296875 C 32.621094 -37.125 32.679688 -37.644531 32.851562 -38.164062 Z M 32.621094 -36.835938 C 32.621094 -36.71875 32.503906 -36.199219 32.273438 -35.679688 C 31.984375 -34.929688 31.984375 -34.871094 32.042969 -35.390625 C 32.214844 -36.140625 32.621094 -37.179688 32.621094 -36.835938 Z M 32.101562 -44.398438 C 32.101562 -44.515625 32.160156 -44.746094 32.332031 -44.917969 C 32.621094 -45.320312 33.140625 -46.996094 33.023438 -47.34375 C 32.964844 -47.457031 33.023438 -47.632812 33.199219 -47.632812 C 33.371094 -47.6875 33.542969 -48.09375 33.542969 -48.441406 C 33.660156 -48.960938 34.007812 -49.480469 34.007812 -49.132812 C 34.007812 -49.015625 33.484375 -47.457031 32.851562 -45.609375 C 32.042969 -43.242188 31.695312 -42.433594 31.753906 -42.898438 C 31.753906 -43.359375 31.925781 -43.820312 32.042969 -43.9375 C 32.160156 -44.109375 32.214844 -44.339844 32.101562 -44.398438 Z M 32.390625 -38.738281 C 32.332031 -38.566406 32.214844 -38.394531 32.160156 -38.394531 C 32.042969 -38.335938 32.101562 -38.507812 32.214844 -38.796875 C 32.390625 -39.316406 32.5625 -39.261719 32.390625 -38.738281 Z M 31.523438 -35.910156 C 31.523438 -35.910156 31.40625 -35.96875 31.351562 -36.085938 C 31.292969 -36.140625 31.351562 -36.257812 31.40625 -36.257812 C 31.523438 -36.257812 31.582031 -36.140625 31.582031 -36.085938 C 31.582031 -35.96875 31.582031 -35.910156 31.523438 -35.910156 Z M 30.023438 -31.121094 C 30.253906 -31.292969 30.253906 -31.234375 30.195312 -30.945312 C 30.136719 -30.773438 30.023438 -30.597656 29.964844 -30.597656 C 29.675781 -30.542969 29.792969 -30.832031 30.023438 -31.121094 Z M 29.617188 -30.023438 C 29.734375 -30.078125 29.792969 -29.90625 29.792969 -29.734375 C 29.792969 -29.558594 29.734375 -29.328125 29.558594 -29.273438 C 29.503906 -29.214844 29.386719 -29.328125 29.445312 -29.617188 C 29.445312 -29.792969 29.503906 -30.023438 29.617188 -30.023438 Z M 30.425781 -39.605469 C 30.542969 -39.605469 30.597656 -39.546875 30.597656 -39.433594 C 30.597656 -39.375 30.542969 -39.261719 30.425781 -39.203125 C 30.3125 -39.144531 30.253906 -39.203125 30.253906 -39.375 C 30.253906 -39.492188 30.3125 -39.605469 30.425781 -39.605469 Z M 29.964844 -37.816406 C 29.90625 -38.046875 30.425781 -38.738281 30.65625 -38.796875 C 30.714844 -38.796875 30.367188 -37.296875 30.023438 -36.375 C 29.734375 -35.566406 29.503906 -35.566406 29.734375 -36.375 C 29.792969 -36.71875 29.847656 -37.066406 29.792969 -37.125 C 29.734375 -37.238281 29.792969 -37.355469 29.90625 -37.414062 C 30.023438 -37.527344 30.023438 -37.699219 29.964844 -37.816406 Z M 29.097656 -34.179688 C 29.214844 -34.179688 29.273438 -34.0625 29.273438 -34.007812 C 29.273438 -33.890625 29.273438 -33.832031 29.273438 -33.832031 C 29.214844 -33.832031 29.097656 -33.890625 29.039062 -34.007812 C 28.984375 -34.0625 29.039062 -34.179688 29.097656 -34.179688 Z M 27.25 -18.1875 C 27.078125 -17.726562 26.847656 -17.839844 26.960938 -18.359375 C 27.136719 -19.050781 27.367188 -19.339844 27.367188 -18.820312 C 27.367188 -18.648438 27.308594 -18.359375 27.25 -18.1875 Z M 27.945312 -22.804688 C 27.710938 -22.804688 27.886719 -23.554688 28.289062 -24.25 C 28.464844 -24.710938 28.464844 -24.652344 28.40625 -23.960938 C 28.347656 -23.613281 28.230469 -23.210938 28.230469 -23.035156 C 28.175781 -22.921875 28.058594 -22.863281 27.945312 -22.804688 Z M 33.082031 -34.757812 C 32.964844 -34.351562 32.621094 -33.371094 32.390625 -32.503906 C 32.160156 -31.640625 31.984375 -30.886719 31.871094 -30.832031 C 31.8125 -30.714844 31.582031 -29.90625 31.292969 -28.984375 C 30.484375 -26.386719 30.484375 -26.152344 30.253906 -25 C 30.078125 -24.421875 29.792969 -23.210938 29.558594 -22.226562 C 29.097656 -20.554688 28.695312 -18.820312 28.40625 -16.742188 C 28.289062 -16.050781 28.117188 -15.414062 28 -15.242188 C 27.886719 -15.125 27.828125 -14.664062 27.828125 -14.203125 C 27.828125 -13.742188 27.710938 -13.277344 27.65625 -13.105469 C 27.539062 -12.933594 27.480469 -13.453125 27.597656 -14.78125 C 27.65625 -15.992188 27.65625 -16.742188 27.539062 -16.859375 C 27.308594 -17.089844 27.480469 -17.492188 27.710938 -17.378906 C 27.945312 -17.203125 28.117188 -17.667969 27.886719 -17.898438 C 27.710938 -18.070312 27.769531 -18.128906 27.945312 -18.128906 C 28.175781 -18.1875 28.230469 -18.246094 28.058594 -18.53125 C 28 -18.707031 27.945312 -18.9375 28 -18.996094 C 28 -19.050781 28.058594 -18.996094 28.058594 -18.878906 C 28.058594 -18.765625 28.175781 -18.707031 28.347656 -18.707031 C 28.519531 -18.707031 28.578125 -18.820312 28.519531 -18.9375 C 28.40625 -19.050781 28.40625 -19.339844 28.40625 -19.628906 C 28.40625 -19.917969 28.40625 -20.089844 28.230469 -19.976562 C 28.175781 -19.917969 28.058594 -19.917969 28.058594 -20.089844 C 28.058594 -20.148438 28.230469 -20.265625 28.347656 -20.265625 C 28.519531 -20.265625 28.636719 -20.4375 28.636719 -20.554688 C 28.636719 -20.726562 28.578125 -20.726562 28.464844 -20.726562 C 28.347656 -20.667969 28.289062 -20.726562 28.289062 -20.898438 C 28.289062 -21.417969 29.386719 -25.289062 29.386719 -24.824219 C 29.328125 -24.191406 28.984375 -22.34375 28.808594 -22.113281 C 28.695312 -21.996094 28.636719 -21.824219 28.636719 -21.765625 C 28.636719 -21.363281 29.328125 -22.515625 29.328125 -22.921875 C 29.328125 -23.210938 29.445312 -23.441406 29.558594 -23.613281 C 29.847656 -23.902344 29.964844 -26.441406 29.734375 -26.441406 C 29.617188 -26.441406 29.617188 -26.5 29.617188 -26.617188 C 29.675781 -26.789062 29.90625 -27.65625 30.136719 -28.636719 C 30.367188 -29.558594 30.597656 -30.195312 30.65625 -29.964844 C 30.65625 -29.792969 30.597656 -29.328125 30.484375 -29.039062 C 30.367188 -28.695312 30.253906 -28.347656 30.253906 -28.175781 C 30.253906 -27.769531 31.003906 -29.039062 31.234375 -30.023438 C 31.40625 -30.542969 31.753906 -31.8125 32.042969 -32.792969 C 32.390625 -33.773438 32.621094 -34.699219 32.621094 -34.871094 C 32.621094 -34.988281 32.734375 -35.101562 32.792969 -35.101562 C 32.910156 -35.160156 33.023438 -35.332031 33.082031 -35.621094 C 33.199219 -35.96875 33.253906 -36.027344 33.253906 -35.796875 C 33.3125 -35.621094 33.253906 -35.160156 33.082031 -34.757812 Z M 34.527344 -42.78125 C 34.527344 -42.492188 34.292969 -41.742188 34.0625 -41.105469 C 33.71875 -39.953125 32.910156 -38.164062 33.082031 -38.855469 C 33.3125 -39.722656 34.121094 -42.089844 34.351562 -42.667969 C 34.640625 -43.300781 34.640625 -43.300781 34.527344 -42.78125 Z M 35.851562 -43.820312 C 35.738281 -43.589844 35.679688 -43.589844 35.679688 -43.820312 C 35.679688 -43.9375 35.796875 -44.226562 35.851562 -44.339844 C 36.027344 -44.570312 36.027344 -44.570312 36.027344 -44.339844 C 36.027344 -44.226562 35.96875 -43.992188 35.851562 -43.820312 Z M 36.488281 -45.785156 C 36.375 -45.378906 36.257812 -45.265625 36.257812 -45.496094 C 36.257812 -45.667969 36.375 -46.015625 36.488281 -46.304688 C 36.660156 -46.535156 36.777344 -46.648438 36.777344 -46.59375 C 36.777344 -46.476562 36.605469 -46.128906 36.488281 -45.785156 Z M 38.566406 -54.328125 C 38.164062 -53.058594 37.179688 -50.289062 36.488281 -48.207031 C 35.332031 -44.800781 34.8125 -43.648438 34.8125 -44.226562 C 34.8125 -44.457031 35.679688 -47.226562 35.910156 -47.746094 C 36.429688 -48.785156 37.007812 -50.519531 37.816406 -52.886719 C 38.796875 -55.886719 39.316406 -57.445312 39.546875 -57.675781 C 39.722656 -57.910156 39.492188 -56.8125 38.566406 -54.328125 Z M 25.402344 -24.480469 C 25.34375 -24.59375 25.34375 -24.480469 25.34375 -24.25 C 25.402344 -24.019531 25.460938 -23.902344 25.460938 -24.074219 C 25.460938 -24.191406 25.460938 -24.363281 25.402344 -24.480469 Z M 25.632812 -25.289062 C 25.578125 -25.34375 25.519531 -25.230469 25.578125 -25.058594 C 25.632812 -24.882812 25.691406 -24.824219 25.691406 -24.941406 C 25.75 -25.113281 25.691406 -25.289062 25.632812 -25.289062 Z M 25.808594 -28.117188 C 25.75 -28.175781 25.691406 -28.058594 25.75 -27.886719 C 25.808594 -27.65625 25.867188 -27.65625 25.867188 -27.769531 C 25.921875 -27.886719 25.867188 -28.058594 25.808594 -28.117188 Z M 25.808594 -28.117188 "/></g></g></g><g fill="#5ce1e6" fill-opacity="1"><g transform="translate(214.523994, 232.10997)"><g><path d="M 5.832031 -13.742188 C 5.890625 -13.742188 6.292969 -13.742188 6.8125 -13.742188 C 7.332031 -13.742188 7.738281 -13.855469 7.910156 -14.03125 C 7.96875 -14.203125 8.3125 -14.375 8.601562 -14.492188 C 8.949219 -14.605469 9.296875 -14.894531 9.46875 -15.070312 C 9.640625 -15.300781 10.507812 -15.992188 11.316406 -16.683594 C 12.757812 -17.78125 13.222656 -18.359375 12.816406 -18.359375 C 12.585938 -18.359375 12.644531 -18.9375 12.933594 -19.226562 C 13.105469 -19.339844 13.164062 -19.515625 13.164062 -19.628906 C 13.164062 -19.6875 13.566406 -20.265625 14.03125 -20.84375 C 14.953125 -21.996094 15.183594 -22.34375 15.070312 -22.34375 C 15.011719 -22.34375 14.664062 -22.113281 14.316406 -21.765625 C 13.855469 -21.246094 13.683594 -21.132812 13.453125 -21.304688 C 13.222656 -21.476562 13.046875 -21.417969 12.414062 -20.84375 C 11.71875 -20.035156 11.144531 -19.804688 11.429688 -20.378906 C 11.546875 -20.554688 11.71875 -20.84375 11.894531 -20.957031 C 12.238281 -21.246094 13.914062 -23.324219 15.011719 -24.824219 C 15.472656 -25.519531 16.109375 -26.328125 16.453125 -26.730469 C 16.800781 -27.136719 17.148438 -27.65625 17.320312 -27.945312 C 17.4375 -28.230469 17.667969 -28.40625 17.726562 -28.347656 C 17.839844 -28.230469 18.128906 -28.40625 18.417969 -28.695312 C 18.707031 -28.925781 18.9375 -29.097656 18.9375 -29.097656 C 18.9375 -28.925781 17.261719 -26.210938 16.972656 -25.921875 C 16.800781 -25.75 16.628906 -25.578125 16.628906 -25.460938 C 16.628906 -25.058594 16.972656 -25.34375 17.667969 -26.269531 C 18.011719 -26.789062 18.589844 -27.539062 18.878906 -27.945312 C 19.570312 -28.925781 20.035156 -29.90625 20.378906 -31.003906 C 20.554688 -31.582031 20.84375 -32.332031 21.015625 -32.792969 C 21.246094 -33.199219 21.417969 -33.71875 21.417969 -33.890625 C 21.417969 -34.0625 21.535156 -34.179688 21.707031 -34.179688 C 21.765625 -34.179688 21.882812 -34.238281 21.882812 -34.351562 C 21.824219 -34.757812 21.882812 -35.046875 22.054688 -34.929688 C 22.054688 -34.871094 22.226562 -35.21875 22.34375 -35.566406 C 22.574219 -36.488281 22.226562 -36.429688 21.707031 -35.507812 C 21.304688 -34.8125 19.628906 -32.214844 18.9375 -31.121094 C 18.765625 -30.832031 18.417969 -30.3125 18.1875 -29.964844 C 17.957031 -29.617188 17.4375 -28.925781 16.972656 -28.289062 C 14.78125 -25.113281 13.046875 -22.804688 12.472656 -22.402344 C 12.183594 -22.171875 11.949219 -21.882812 11.949219 -21.765625 C 11.949219 -21.535156 11.257812 -20.785156 11.027344 -20.785156 C 10.96875 -20.785156 10.507812 -20.4375 9.988281 -19.976562 C 9.007812 -19.109375 8.601562 -18.9375 9.296875 -19.804688 C 9.585938 -20.148438 10.390625 -21.074219 11.144531 -21.9375 C 12.757812 -23.84375 13.683594 -25.058594 13.972656 -25.578125 C 14.03125 -25.867188 14.375 -26.269531 14.605469 -26.5 C 14.894531 -26.671875 15.070312 -27.019531 15.070312 -27.136719 C 15.070312 -27.191406 15.242188 -27.539062 15.414062 -27.710938 C 15.644531 -27.945312 15.761719 -28.230469 15.703125 -28.230469 C 15.589844 -28.464844 15.933594 -29.15625 16.164062 -29.039062 C 16.28125 -28.984375 16.28125 -29.097656 16.28125 -29.386719 C 16.28125 -29.792969 16.339844 -29.792969 16.628906 -29.617188 C 16.859375 -29.445312 16.917969 -29.445312 16.800781 -29.675781 C 16.683594 -29.964844 17.089844 -30.65625 18.359375 -32.503906 C 19.167969 -33.660156 19.457031 -34.179688 19.285156 -34.179688 C 19.167969 -34.179688 18.417969 -33.199219 18.417969 -33.023438 C 18.417969 -32.964844 18.359375 -32.792969 18.246094 -32.734375 C 17.957031 -32.390625 17.148438 -31.292969 16.398438 -30.253906 C 13.742188 -26.441406 12.527344 -24.941406 12.066406 -24.824219 C 11.605469 -24.710938 11.375 -24.363281 11.546875 -24.019531 C 11.605469 -23.84375 11.546875 -23.730469 11.488281 -23.730469 C 11.375 -23.730469 11.257812 -23.84375 11.257812 -23.902344 C 11.199219 -24.019531 10.855469 -23.671875 10.390625 -23.09375 C 9.988281 -22.574219 9.585938 -22.054688 9.46875 -21.9375 C 9.296875 -21.882812 9.179688 -21.707031 9.179688 -21.59375 C 9.179688 -21.417969 9.0625 -21.246094 8.832031 -21.246094 C 8.601562 -21.132812 8.542969 -21.015625 8.601562 -20.84375 C 8.601562 -20.667969 8.542969 -20.554688 8.371094 -20.496094 C 8.199219 -20.4375 7.679688 -20.089844 7.332031 -19.6875 C 6.871094 -19.339844 6.292969 -18.996094 6.121094 -18.9375 C 5.832031 -18.878906 5.601562 -18.765625 5.542969 -18.707031 C 5.371094 -18.53125 4.15625 -18.011719 3.867188 -18.011719 C 3.234375 -18.011719 3.175781 -19.339844 3.578125 -21.246094 C 3.867188 -22.632812 3.984375 -22.980469 4.15625 -24.363281 C 4.386719 -26.269531 6.640625 -33.484375 7.5625 -35.449219 C 7.910156 -36.199219 8.140625 -36.835938 8.140625 -37.007812 C 8.140625 -37.179688 8.488281 -38.277344 8.660156 -38.683594 C 8.949219 -39.261719 8.71875 -40.644531 8.199219 -41.339844 C 7.910156 -41.800781 7.5625 -42.148438 7.390625 -42.148438 C 7.273438 -42.148438 6.753906 -42.320312 6.292969 -42.609375 C 5.195312 -43.128906 4.675781 -43.128906 4.675781 -42.722656 C 4.675781 -42.550781 4.503906 -42.203125 4.214844 -41.972656 C 4.042969 -41.742188 3.808594 -41.511719 3.808594 -41.394531 C 3.808594 -41.339844 3.636719 -40.820312 3.40625 -40.300781 C 3.003906 -39.433594 2.136719 -37.355469 1.210938 -34.871094 C 0.636719 -33.3125 0.171875 -31.925781 -0.519531 -29.617188 C -0.75 -28.925781 -1.039062 -27.886719 -1.210938 -27.308594 C -1.558594 -26.210938 -1.964844 -23.960938 -2.195312 -22.402344 C -2.367188 -20.898438 -1.617188 -18.765625 -0.636719 -17.839844 C -0.460938 -17.726562 0.117188 -17.148438 0.691406 -16.570312 C 1.210938 -15.992188 1.730469 -15.589844 1.789062 -15.589844 C 1.847656 -15.589844 2.195312 -15.359375 2.484375 -15.125 C 2.828125 -14.894531 3.175781 -14.722656 3.234375 -14.722656 C 3.347656 -14.722656 3.523438 -14.550781 3.636719 -14.433594 C 3.808594 -14.203125 4.332031 -14.03125 5.371094 -13.855469 C 5.601562 -13.855469 5.832031 -13.796875 5.832031 -13.742188 Z M 0.171875 -25.113281 C 0.171875 -24.882812 0 -24.132812 -0.171875 -23.5 C -0.460938 -22.457031 -0.519531 -22.402344 -0.519531 -22.863281 C -0.519531 -23.152344 -0.402344 -23.84375 -0.289062 -24.421875 C -0.171875 -24.941406 0.0585938 -25.808594 0.171875 -26.328125 C 0.519531 -28.058594 2.078125 -32.503906 2.078125 -31.871094 C 2.078125 -31.753906 1.269531 -29.097656 1.039062 -28.519531 C 0.867188 -28.058594 0.519531 -26.5 0.460938 -26.097656 C 0.402344 -25.921875 0.347656 -25.75 0.289062 -25.691406 C 0.230469 -25.632812 0.171875 -25.402344 0.171875 -25.113281 Z M 12.125 -24.363281 C 12.125 -24.304688 12.066406 -24.191406 11.949219 -24.191406 C 11.894531 -24.132812 11.777344 -24.132812 11.777344 -24.25 C 11.777344 -24.363281 11.894531 -24.421875 11.949219 -24.421875 C 12.066406 -24.421875 12.125 -24.363281 12.125 -24.363281 Z M 0.980469 -25.867188 C 1.039062 -25.75 1.039062 -25.578125 0.980469 -25.402344 C 0.921875 -25.289062 0.867188 -25.402344 0.867188 -25.632812 C 0.867188 -25.867188 0.921875 -25.980469 0.980469 -25.867188 Z M 15.070312 -23.5 C 15.070312 -23.441406 15.183594 -23.382812 15.242188 -23.382812 C 15.414062 -23.382812 15.414062 -23.5 15.414062 -23.554688 C 15.414062 -23.671875 15.414062 -23.671875 15.242188 -23.671875 C 15.183594 -23.613281 15.070312 -23.5 15.070312 -23.5 Z M 10.335938 -49.246094 C 10.507812 -49.074219 10.679688 -48.902344 10.738281 -48.902344 C 10.96875 -48.902344 11.605469 -49.59375 11.664062 -49.824219 C 11.71875 -50.171875 11.71875 -50.402344 11.835938 -50.632812 C 11.894531 -50.808594 12.007812 -51.09375 12.066406 -51.269531 C 12.238281 -52.019531 12.816406 -53.519531 12.992188 -53.636719 C 13.222656 -53.75 13.335938 -54.675781 13.105469 -54.964844 C 13.046875 -55.078125 12.816406 -55.195312 12.644531 -55.195312 C 12.472656 -55.195312 12.296875 -55.253906 12.296875 -55.367188 C 12.296875 -55.542969 11.949219 -55.714844 11.546875 -55.828125 C 11.027344 -55.945312 10.738281 -56.117188 10.738281 -56.292969 C 10.738281 -56.40625 10.625 -56.582031 10.449219 -56.582031 C 10.277344 -56.582031 10.046875 -56.636719 9.988281 -56.753906 C 9.640625 -57.042969 9.179688 -56.753906 8.949219 -56.117188 L 8.71875 -55.597656 L 8.71875 -56.0625 C 8.660156 -56.582031 8.3125 -56.753906 8.3125 -56.347656 C 8.3125 -56.234375 7.910156 -55.367188 7.390625 -54.445312 L 6.464844 -52.769531 L 6.695312 -51.960938 C 6.871094 -51.5 7.160156 -51.09375 7.332031 -50.980469 C 7.792969 -50.75 8.660156 -49.824219 8.660156 -49.59375 C 8.660156 -49.304688 8.949219 -49.246094 9.527344 -49.421875 C 10.046875 -49.59375 10.160156 -49.59375 10.335938 -49.246094 Z M 7.792969 -53.925781 C 7.792969 -53.75 7.738281 -53.578125 7.621094 -53.519531 C 7.390625 -53.40625 7.390625 -53.636719 7.621094 -53.980469 C 7.792969 -54.15625 7.792969 -54.15625 7.792969 -53.925781 Z M 7.792969 -53.925781 "/></g></g></g><g fill="#00bf63" fill-opacity="1"><g transform="translate(232.991335, 232.10997)"><g><path d="M 32.160156 -30.367188 C 32.273438 -30.886719 32.273438 -31.464844 32.214844 -32.042969 C 32.101562 -31.871094 31.984375 -31.695312 31.871094 -31.464844 C 31.523438 -30.945312 31.121094 -30.3125 30.886719 -29.964844 C 30.773438 -29.617188 30.023438 -28.40625 29.214844 -27.308594 C 28.464844 -26.152344 27.769531 -25 27.65625 -24.824219 C 27.539062 -24.59375 27.25 -24.304688 27.019531 -24.191406 C 26.730469 -24.132812 26.558594 -23.902344 26.558594 -23.84375 C 26.558594 -23.671875 26.386719 -23.382812 26.039062 -23.152344 L 25.578125 -22.632812 L 25.75 -23.152344 C 25.921875 -23.5 25.921875 -23.730469 25.691406 -23.785156 C 25.632812 -23.84375 25.921875 -24.363281 26.5 -25 C 27.769531 -26.5 29.792969 -29.503906 31.984375 -33.199219 C 31.871094 -33.371094 31.8125 -33.484375 31.753906 -33.660156 C 31.695312 -33.71875 31.695312 -33.71875 31.640625 -33.773438 C 31.464844 -33.484375 31.292969 -33.199219 31.292969 -33.082031 C 31.292969 -32.910156 31.234375 -32.851562 31.121094 -32.851562 C 31.003906 -32.851562 30.886719 -32.734375 30.886719 -32.5625 C 30.886719 -32.445312 30.832031 -32.160156 30.597656 -31.925781 C 30.078125 -31.121094 29.328125 -30.078125 29.328125 -29.847656 C 29.328125 -29.734375 29.097656 -29.386719 28.753906 -29.039062 C 28.464844 -28.636719 28.117188 -28.230469 28.117188 -28.117188 C 28.117188 -28 28 -27.769531 27.769531 -27.597656 C 27.480469 -27.308594 27.019531 -26.671875 26.617188 -26.097656 C 26.210938 -25.519531 25.632812 -24.710938 25.289062 -24.304688 C 24.941406 -23.902344 24.191406 -23.09375 23.671875 -22.457031 C 23.152344 -21.765625 23.210938 -22.863281 23.210938 -22.980469 C 23.210938 -23.035156 23.441406 -23.382812 23.730469 -23.671875 C 24.304688 -24.25 25.578125 -26.210938 25.578125 -26.5 C 25.578125 -26.558594 25.75 -26.671875 25.980469 -26.730469 C 26.269531 -26.847656 26.386719 -27.019531 26.386719 -27.367188 C 26.386719 -27.65625 26.441406 -27.886719 26.558594 -27.886719 C 26.730469 -27.886719 27.539062 -29.15625 27.539062 -29.503906 C 27.539062 -29.792969 26.558594 -28.636719 26.558594 -28.347656 C 26.558594 -28.175781 26.5 -28.058594 26.386719 -28.058594 C 26.328125 -28.058594 25.808594 -27.480469 25.34375 -26.789062 C 24.882812 -26.097656 24.421875 -25.519531 24.363281 -25.519531 C 24.304688 -25.519531 24.074219 -25.230469 23.902344 -24.882812 C 23.265625 -23.613281 13.046875 -16.628906 14.203125 -17.4375 C 14.953125 -18.011719 15.644531 -18.707031 15.644531 -18.878906 C 15.644531 -18.9375 15.183594 -18.648438 14.605469 -18.246094 C 11.894531 -16.222656 10.160156 -16.628906 8.542969 -16.628906 C 7.390625 -16.628906 7.042969 -16.742188 6.871094 -17.320312 C 6.695312 -17.839844 6.0625 -20.613281 6.0625 -21.015625 C 6.0625 -21.074219 6.523438 -21.417969 7.042969 -21.707031 C 7.5625 -21.996094 8.023438 -22.285156 8.082031 -22.34375 C 8.3125 -22.574219 9.0625 -22.921875 9.410156 -22.921875 C 9.640625 -22.921875 13.972656 -27.019531 13.972656 -27.308594 C 13.972656 -27.367188 14.433594 -27.886719 15.011719 -28.40625 C 15.53125 -28.984375 16.050781 -29.734375 16.164062 -30.078125 C 16.339844 -30.425781 16.511719 -30.65625 16.628906 -30.65625 C 16.683594 -30.65625 16.742188 -30.773438 16.742188 -30.886719 C 16.742188 -31.0625 17.148438 -31.582031 17.667969 -32.160156 C 18.128906 -32.679688 18.53125 -33.253906 18.589844 -33.3125 C 18.589844 -33.429688 19.050781 -34.121094 19.515625 -34.8125 C 21.535156 -37.527344 22.863281 -40.414062 22.921875 -42.492188 C 22.921875 -43.761719 22.863281 -44.050781 22.285156 -45.035156 C 21.535156 -46.417969 20.148438 -47.574219 18.53125 -48.324219 C 17.839844 -48.671875 16.972656 -49.191406 16.570312 -49.535156 C 15.703125 -50.230469 14.316406 -50.402344 13.164062 -50.054688 C 12.238281 -49.824219 9.121094 -47.515625 8.890625 -46.9375 C 8.832031 -46.765625 8.429688 -46.535156 8.082031 -46.359375 C 7.390625 -46.074219 5.65625 -44.226562 5.65625 -43.707031 C 5.65625 -43.648438 5.65625 -43.53125 5.542969 -43.472656 C 5.3125 -43.417969 4.15625 -41.570312 3.234375 -39.835938 C 2.308594 -38.277344 1.15625 -34.988281 0.460938 -32.214844 C -0.460938 -28.753906 -0.289062 -23.152344 0.808594 -20.035156 C 1.5 -18.246094 2.195312 -17.320312 4.617188 -15.242188 C 5.714844 -14.203125 7.738281 -13.046875 8.429688 -12.933594 C 8.890625 -12.816406 10.390625 -12.355469 10.507812 -12.183594 C 10.796875 -12.007812 12.355469 -12.066406 12.757812 -12.183594 C 19.746094 -14.375 24.769531 -19.628906 24.769531 -19.6875 C 24.769531 -19.804688 25 -20.035156 25.171875 -20.265625 C 25.34375 -20.4375 25.921875 -21.132812 26.386719 -21.765625 C 26.90625 -22.402344 27.425781 -23.035156 27.65625 -23.210938 C 27.828125 -23.5 28.753906 -24.710938 29.617188 -26.039062 C 30.832031 -27.886719 31.640625 -29.097656 32.273438 -30.023438 C 32.214844 -30.136719 32.160156 -30.253906 32.160156 -30.367188 Z M 10.910156 -27.078125 C 10.449219 -26.617188 10.449219 -26.617188 10.679688 -27.019531 C 10.855469 -27.367188 11.429688 -27.828125 11.429688 -27.65625 C 11.429688 -27.597656 11.199219 -27.367188 10.910156 -27.078125 Z M 11.835938 -28 C 11.71875 -27.945312 11.605469 -27.945312 11.605469 -28.058594 C 11.605469 -28.175781 11.71875 -28.289062 11.835938 -28.289062 C 11.949219 -28.289062 12.007812 -28.230469 12.007812 -28.175781 C 12.007812 -28.117188 11.949219 -28.058594 11.835938 -28 Z M 12.414062 -28.867188 C 12.183594 -28.867188 12.183594 -29.039062 12.414062 -29.15625 C 12.585938 -29.214844 12.585938 -29.214844 12.585938 -29.097656 C 12.585938 -28.984375 12.585938 -28.867188 12.414062 -28.867188 Z M 13.394531 -30.253906 C 13.164062 -30.253906 13.164062 -30.425781 13.394531 -30.542969 C 13.566406 -30.597656 13.625 -30.597656 13.625 -30.484375 C 13.625 -30.367188 13.566406 -30.253906 13.394531 -30.253906 Z M 15.070312 -32.5625 C 14.953125 -32.214844 14.78125 -32.160156 14.78125 -32.445312 C 14.78125 -32.5625 14.894531 -32.679688 15.011719 -32.734375 C 15.125 -32.792969 15.125 -32.734375 15.070312 -32.5625 Z M 6.753906 -30.253906 C 6.984375 -30.542969 7.042969 -30.945312 7.042969 -31.0625 C 7.042969 -31.175781 7.449219 -32.160156 7.910156 -33.140625 C 8.3125 -34.121094 8.777344 -35.160156 8.949219 -35.507812 C 9.0625 -35.851562 9.410156 -36.546875 9.527344 -37.066406 C 9.929688 -38.164062 10.277344 -38.738281 11.546875 -40.300781 C 12.007812 -40.875 12.472656 -41.511719 12.527344 -41.742188 C 12.585938 -41.914062 12.757812 -42.148438 12.875 -42.148438 C 12.933594 -42.148438 13.335938 -42.492188 13.742188 -42.898438 C 14.144531 -43.300781 14.78125 -43.761719 15.125 -43.992188 C 15.53125 -44.28125 16.222656 -44.976562 16.683594 -45.609375 C 17.261719 -46.1875 17.726562 -46.707031 17.78125 -46.707031 C 18.1875 -46.707031 18.589844 -45.265625 18.417969 -44.398438 C 18.246094 -43.011719 17.4375 -40.414062 17.089844 -39.953125 C 16.917969 -39.78125 16.972656 -39.722656 17.089844 -39.835938 C 17.667969 -40.183594 17.378906 -39.375 16.398438 -37.933594 C 13.855469 -34.121094 12.992188 -32.910156 12.585938 -32.5625 C 12.414062 -32.273438 12.183594 -31.984375 12.183594 -31.871094 C 12.183594 -31.640625 12.007812 -31.351562 10.910156 -30.136719 C 10.507812 -29.792969 10.21875 -29.386719 10.21875 -29.328125 C 10.21875 -29.097656 9.0625 -27.886719 8.832031 -27.886719 C 8.777344 -27.886719 8.71875 -27.710938 8.777344 -27.597656 C 8.777344 -27.367188 8.777344 -27.25 8.542969 -27.136719 C 8.429688 -27.078125 8.257812 -26.960938 8.257812 -26.847656 C 8.257812 -26.5 6.929688 -25.460938 6.582031 -25.460938 C 6.351562 -25.460938 6.292969 -25.289062 6.351562 -24.941406 C 6.410156 -24.710938 6.410156 -24.539062 6.292969 -24.539062 C 6.003906 -24.539062 6.0625 -24.421875 6.003906 -25.578125 C 5.890625 -26.671875 6.351562 -29.445312 6.753906 -30.253906 Z M 29.445312 -32.445312 C 29.386719 -32.445312 29.273438 -32.445312 29.214844 -32.445312 C 29.097656 -32.273438 28.984375 -32.160156 28.867188 -31.984375 C 28.40625 -31.292969 27.886719 -30.542969 27.769531 -30.3125 C 27.597656 -29.964844 27.597656 -29.90625 27.945312 -29.90625 C 28.230469 -29.90625 28.347656 -30.078125 28.347656 -30.425781 C 28.347656 -30.65625 28.464844 -30.832031 28.519531 -30.832031 C 28.695312 -30.832031 28.753906 -31.003906 28.753906 -31.121094 C 28.753906 -31.351562 28.925781 -31.523438 29.15625 -31.582031 C 29.386719 -31.640625 29.503906 -31.8125 29.503906 -31.984375 C 29.386719 -32.160156 29.386719 -32.332031 29.445312 -32.445312 Z M 29.847656 -32.851562 C 30.023438 -32.851562 30.136719 -33.023438 30.136719 -33.199219 C 30.136719 -33.253906 30.136719 -33.253906 30.136719 -33.253906 C 30.023438 -33.082031 29.964844 -32.964844 29.847656 -32.851562 Z M 29.847656 -32.851562 "/></g></g></g></svg>